<svg width="190" height="191" viewBox="0 0 190 191" fill="none" xmlns="http://www.w3.org/2000/svg">
<g filter="url(#filter0_dii_18_5353)">
<path fill-rule="evenodd" clip-rule="evenodd" d="M170 52.7161C170 50.9354 170.001 49.1545 169.99 47.3736C169.981 45.8735 169.964 44.3736 169.923 42.8742C169.835 39.6061 169.642 36.3099 169.061 33.0782C168.471 29.7999 167.509 26.7487 165.992 23.77C164.5 20.8423 162.552 18.1632 160.228 15.8406C157.904 13.518 155.225 11.5713 152.296 10.0809C149.314 8.56364 146.26 7.60139 142.978 7.01213C139.746 6.43179 136.449 6.23938 133.181 6.15109C131.68 6.1105 130.179 6.09339 128.679 6.0841C126.897 6.07318 125.115 6.07409 123.333 6.07409L102.645 6H87.1718L66.8497 6.07409C65.0645 6.07409 63.2792 6.07318 61.494 6.0841C59.99 6.09339 58.4867 6.1105 56.9833 6.15109C53.7075 6.23938 50.403 6.43198 47.1633 7.01304C43.8769 7.60212 40.818 8.56401 37.8322 10.0802C34.8972 11.5707 32.2116 13.5176 29.883 15.8406C27.5547 18.1631 25.6031 20.8416 24.1091 23.7687C22.588 26.7489 21.6236 29.8019 21.0327 33.082C20.4509 36.3125 20.2581 39.6075 20.1695 42.8742C20.1291 44.3738 20.1116 45.8736 20.1025 47.3736C20.0916 49.1547 20 51.367 20 53.1479L20.0005 73.1885L20 88.8274L20.0925 109.294C20.0925 111.077 20.0917 112.86 20.1025 114.643C20.1116 116.146 20.1291 117.647 20.1697 119.149C20.2581 122.421 20.4513 125.722 21.0336 128.958C21.6243 132.241 22.5886 135.297 24.1084 138.279C25.6026 141.211 27.5546 143.894 29.883 146.219C32.2114 148.545 34.8963 150.495 37.8308 151.987C40.8184 153.506 43.8788 154.47 47.1671 155.06C50.4054 155.641 53.7088 155.834 56.9833 155.922C58.4867 155.963 59.9902 155.98 61.4942 155.989C63.2794 156 65.0645 155.999 66.8497 155.999L87.3555 156H102.867L123.333 155.999C125.115 155.999 126.897 156 128.679 155.989C130.179 155.98 131.68 155.963 133.181 155.922C136.45 155.834 139.748 155.641 142.982 155.059C146.262 154.469 149.315 153.506 152.295 151.988C155.224 150.495 157.904 148.546 160.228 146.219C162.552 143.894 164.5 141.212 165.991 138.28C167.509 135.296 168.472 132.239 169.061 128.955C169.642 125.72 169.835 122.42 169.923 119.149C169.964 117.647 169.981 116.145 169.99 114.643C170.001 112.86 170 111.077 170 109.294C170 109.294 169.999 89.1887 169.999 88.8274V73.1721C169.999 72.9052 170 52.7161 170 52.7161Z" fill="url(#paint0_linear_18_5353)"/>
<path fill-rule="evenodd" clip-rule="evenodd" d="M170 52.7161C170 50.9354 170.001 49.1545 169.99 47.3736C169.981 45.8735 169.964 44.3736 169.923 42.8742C169.835 39.6061 169.642 36.3099 169.061 33.0782C168.471 29.7999 167.509 26.7487 165.992 23.77C164.5 20.8423 162.552 18.1632 160.228 15.8406C157.904 13.518 155.225 11.5713 152.296 10.0809C149.314 8.56364 146.26 7.60139 142.978 7.01213C139.746 6.43179 136.449 6.23938 133.181 6.15109C131.68 6.1105 130.179 6.09339 128.679 6.0841C126.897 6.07318 125.115 6.07409 123.333 6.07409L102.645 6H87.1718L66.8497 6.07409C65.0645 6.07409 63.2792 6.07318 61.494 6.0841C59.99 6.09339 58.4867 6.1105 56.9833 6.15109C53.7075 6.23938 50.403 6.43198 47.1633 7.01304C43.8769 7.60212 40.818 8.56401 37.8322 10.0802C34.8972 11.5707 32.2116 13.5176 29.883 15.8406C27.5547 18.1631 25.6031 20.8416 24.1091 23.7687C22.588 26.7489 21.6236 29.8019 21.0327 33.082C20.4509 36.3125 20.2581 39.6075 20.1695 42.8742C20.1291 44.3738 20.1116 45.8736 20.1025 47.3736C20.0916 49.1547 20 51.367 20 53.1479L20.0005 73.1885L20 88.8274L20.0925 109.294C20.0925 111.077 20.0917 112.86 20.1025 114.643C20.1116 116.146 20.1291 117.647 20.1697 119.149C20.2581 122.421 20.4513 125.722 21.0336 128.958C21.6243 132.241 22.5886 135.297 24.1084 138.279C25.6026 141.211 27.5546 143.894 29.883 146.219C32.2114 148.545 34.8963 150.495 37.8308 151.987C40.8184 153.506 43.8788 154.47 47.1671 155.06C50.4054 155.641 53.7088 155.834 56.9833 155.922C58.4867 155.963 59.9902 155.98 61.4942 155.989C63.2794 156 65.0645 155.999 66.8497 155.999L87.3555 156H102.867L123.333 155.999C125.115 155.999 126.897 156 128.679 155.989C130.179 155.98 131.68 155.963 133.181 155.922C136.45 155.834 139.748 155.641 142.982 155.059C146.262 154.469 149.315 153.506 152.295 151.988C155.224 150.495 157.904 148.546 160.228 146.219C162.552 143.894 164.5 141.212 165.991 138.28C167.509 135.296 168.472 132.239 169.061 128.955C169.642 125.72 169.835 122.42 169.923 119.149C169.964 117.647 169.981 116.145 169.99 114.643C170.001 112.86 170 111.077 170 109.294C170 109.294 169.999 89.1887 169.999 88.8274V73.1721C169.999 72.9052 170 52.7161 170 52.7161Z" fill="#FEDA14"/>
</g>
<g filter="url(#filter1_ddii_18_5353)">
<rect x="32.3379" y="18.3376" width="125.826" height="125.826" rx="21" fill="url(#paint1_linear_18_5353)"/>
</g>
<g filter="url(#filter2_dii_18_5353)">
<path fill-rule="evenodd" clip-rule="evenodd" d="M120.773 95.6874C126.726 89.404 130.378 80.9177 130.378 71.5786C130.378 52.216 114.681 36.5195 95.3188 36.5195C75.9562 36.5195 60.2598 52.216 60.2598 71.5786C60.2598 90.9031 75.8947 106.576 95.2048 106.637V125.529L120.773 95.6874ZM110.696 71.5786C110.696 80.0709 103.811 86.9553 95.3188 86.9553C86.8265 86.9553 79.942 80.0709 79.942 71.5786C79.942 63.0862 86.8265 56.2018 95.3188 56.2018C103.811 56.2018 110.696 63.0862 110.696 71.5786Z" fill="url(#paint2_linear_18_5353)"/>
</g>
<defs>
<filter id="filter0_dii_18_5353" x="0" y="0" width="190" height="190" filterUnits="userSpaceOnUse" color-interpolation-filters="sRGB">
<feFlood flood-opacity="0" result="BackgroundImageFix"/>
<feColorMatrix in="SourceAlpha" type="matrix" values="0 0 0 0 0 0 0 0 0 0 0 0 0 0 0 0 0 0 127 0" result="hardAlpha"/>
<feOffset dy="14"/>
<feGaussianBlur stdDeviation="10"/>
<feColorMatrix type="matrix" values="0 0 0 0 0 0 0 0 0 0 0 0 0 0 0 0 0 0 0.25 0"/>
<feBlend mode="normal" in2="BackgroundImageFix" result="effect1_dropShadow_18_5353"/>
<feBlend mode="normal" in="SourceGraphic" in2="effect1_dropShadow_18_5353" result="shape"/>
<feColorMatrix in="SourceAlpha" type="matrix" values="0 0 0 0 0 0 0 0 0 0 0 0 0 0 0 0 0 0 127 0" result="hardAlpha"/>
<feOffset dy="4"/>
<feGaussianBlur stdDeviation="1"/>
<feComposite in2="hardAlpha" operator="arithmetic" k2="-1" k3="1"/>
<feColorMatrix type="matrix" values="0 0 0 0 1 0 0 0 0 1 0 0 0 0 1 0 0 0 0.44 0"/>
<feBlend mode="normal" in2="shape" result="effect2_innerShadow_18_5353"/>
<feColorMatrix in="SourceAlpha" type="matrix" values="0 0 0 0 0 0 0 0 0 0 0 0 0 0 0 0 0 0 127 0" result="hardAlpha"/>
<feOffset dy="-3"/>
<feGaussianBlur stdDeviation="2"/>
<feComposite in2="hardAlpha" operator="arithmetic" k2="-1" k3="1"/>
<feColorMatrix type="matrix" values="0 0 0 0 0 0 0 0 0 0 0 0 0 0 0 0 0 0 0.25 0"/>
<feBlend mode="normal" in2="effect2_innerShadow_18_5353" result="effect3_innerShadow_18_5353"/>
</filter>
<filter id="filter1_ddii_18_5353" x="29.3379" y="13.3376" width="131.826" height="136.826" filterUnits="userSpaceOnUse" color-interpolation-filters="sRGB">
<feFlood flood-opacity="0" result="BackgroundImageFix"/>
<feColorMatrix in="SourceAlpha" type="matrix" values="0 0 0 0 0 0 0 0 0 0 0 0 0 0 0 0 0 0 127 0" result="hardAlpha"/>
<feOffset dy="4"/>
<feGaussianBlur stdDeviation="1"/>
<feColorMatrix type="matrix" values="0 0 0 0 1 0 0 0 0 1 0 0 0 0 1 0 0 0 0.37 0"/>
<feBlend mode="normal" in2="BackgroundImageFix" result="effect1_dropShadow_18_5353"/>
<feColorMatrix in="SourceAlpha" type="matrix" values="0 0 0 0 0 0 0 0 0 0 0 0 0 0 0 0 0 0 127 0" result="hardAlpha"/>
<feOffset dy="-2"/>
<feGaussianBlur stdDeviation="1.5"/>
<feColorMatrix type="matrix" values="0 0 0 0 0 0 0 0 0 0 0 0 0 0 0 0 0 0 0.59 0"/>
<feBlend mode="normal" in2="effect1_dropShadow_18_5353" result="effect2_dropShadow_18_5353"/>
<feBlend mode="normal" in="SourceGraphic" in2="effect2_dropShadow_18_5353" result="shape"/>
<feColorMatrix in="SourceAlpha" type="matrix" values="0 0 0 0 0 0 0 0 0 0 0 0 0 0 0 0 0 0 127 0" result="hardAlpha"/>
<feOffset dy="5"/>
<feGaussianBlur stdDeviation="10.5"/>
<feComposite in2="hardAlpha" operator="arithmetic" k2="-1" k3="1"/>
<feColorMatrix type="matrix" values="0 0 0 0 0 0 0 0 0 0 0 0 0 0 0 0 0 0 0.23 0"/>
<feBlend mode="normal" in2="shape" result="effect3_innerShadow_18_5353"/>
<feColorMatrix in="SourceAlpha" type="matrix" values="0 0 0 0 0 0 0 0 0 0 0 0 0 0 0 0 0 0 127 0" result="hardAlpha"/>
<feOffset dy="5"/>
<feGaussianBlur stdDeviation="2"/>
<feComposite in2="hardAlpha" operator="arithmetic" k2="-1" k3="1"/>
<feColorMatrix type="matrix" values="0 0 0 0 0 0 0 0 0 0 0 0 0 0 0 0 0 0 0.07 0"/>
<feBlend mode="normal" in2="effect3_innerShadow_18_5353" result="effect4_innerShadow_18_5353"/>
</filter>
<filter id="filter2_dii_18_5353" x="13.2598" y="7.48953" width="164.118" height="183.01" filterUnits="userSpaceOnUse" color-interpolation-filters="sRGB">
<feFlood flood-opacity="0" result="BackgroundImageFix"/>
<feColorMatrix in="SourceAlpha" type="matrix" values="0 0 0 0 0 0 0 0 0 0 0 0 0 0 0 0 0 0 127 0" result="hardAlpha"/>
<feOffset dy="17.97"/>
<feGaussianBlur stdDeviation="23.5"/>
<feComposite in2="hardAlpha" operator="out"/>
<feColorMatrix type="matrix" values="0 0 0 0 0 0 0 0 0 0 0 0 0 0 0 0 0 0 0.48 0"/>
<feBlend mode="normal" in2="BackgroundImageFix" result="effect1_dropShadow_18_5353"/>
<feBlend mode="normal" in="SourceGraphic" in2="effect1_dropShadow_18_5353" result="shape"/>
<feColorMatrix in="SourceAlpha" type="matrix" values="0 0 0 0 0 0 0 0 0 0 0 0 0 0 0 0 0 0 127 0" result="hardAlpha"/>
<feOffset dy="4"/>
<feGaussianBlur stdDeviation="1"/>
<feComposite in2="hardAlpha" operator="arithmetic" k2="-1" k3="1"/>
<feColorMatrix type="matrix" values="0 0 0 0 1 0 0 0 0 1 0 0 0 0 1 0 0 0 0.4 0"/>
<feBlend mode="normal" in2="shape" result="effect2_innerShadow_18_5353"/>
<feColorMatrix in="SourceAlpha" type="matrix" values="0 0 0 0 0 0 0 0 0 0 0 0 0 0 0 0 0 0 127 0" result="hardAlpha"/>
<feOffset dy="-4"/>
<feGaussianBlur stdDeviation="1"/>
<feComposite in2="hardAlpha" operator="arithmetic" k2="-1" k3="1"/>
<feColorMatrix type="matrix" values="0 0 0 0 0 0 0 0 0 0 0 0 0 0 0 0 0 0 0.25 0"/>
<feBlend mode="normal" in2="effect2_innerShadow_18_5353" result="effect3_innerShadow_18_5353"/>
</filter>
<linearGradient id="paint0_linear_18_5353" x1="95" y1="6" x2="95" y2="156" gradientUnits="userSpaceOnUse">
<stop stop-color="#3A3D47"/>
<stop offset="1" stop-color="#23242B"/>
</linearGradient>
<linearGradient id="paint1_linear_18_5353" x1="95.2508" y1="18.3376" x2="95.2508" y2="144.164" gradientUnits="userSpaceOnUse">
<stop stop-color="#0F266D"/>
<stop offset="1" stop-color="#23242B"/>
</linearGradient>
<linearGradient id="paint2_linear_18_5353" x1="95.3188" y1="36.5195" x2="95.3188" y2="125.529" gradientUnits="userSpaceOnUse">
<stop stop-color="#FEDA14"/>
<stop offset="1" stop-color="#FE9800"/>
</linearGradient>
</defs>
</svg>
