<svg width="1016" height="724" viewBox="0 0 1016 724" fill="none" xmlns="http://www.w3.org/2000/svg">
<path d="M999.432 502.896C982.231 538.362 952.449 565.497 918.376 586.145C904.402 594.543 889.869 601.979 874.881 608.399C865.076 612.642 855.137 616.513 845.063 620.014C795.095 637.45 742.224 645.972 689.26 646C680.605 646.009 671.95 645.787 663.295 645.334C660.812 645.206 658.329 645.06 655.845 644.896C642.762 644.029 629.721 642.639 616.724 640.726C616.468 640.689 616.203 640.653 615.947 640.607C588.759 636.595 561.955 630.317 535.814 621.839C530.747 620.196 525.71 618.472 520.704 616.665C519.353 616.191 518.002 615.689 516.659 615.196C511.017 613.107 505.417 610.914 499.86 608.618C495.186 606.693 490.539 604.694 485.919 602.623C481.372 600.57 476.856 598.45 472.37 596.264C465.03 592.669 457.768 588.901 450.586 584.959C445.044 581.893 439.575 578.712 434.18 575.415C420.798 567.247 407.85 558.391 395.386 548.882C390.986 545.524 386.646 542.081 382.367 538.553C379.4 536.108 376.46 533.608 373.475 531.181C367.175 526.062 360.693 521.199 353.462 517.558C351.28 516.46 349.043 515.473 346.761 514.602C338.229 511.447 329.24 509.7 320.147 509.429C304.635 508.817 288.621 511.701 273.62 515.971C266.49 517.987 259.442 520.305 252.393 522.677C249.499 523.653 246.608 524.633 243.72 525.615C237.749 527.65 231.778 529.639 225.752 531.455C223.744 532.057 221.735 532.65 219.717 533.206C211.661 535.524 203.451 537.268 195.149 538.425C176.607 540.781 157.776 539.142 139.922 533.617L138.397 533.142C135.841 532.34 133.312 531.464 130.792 530.506L129.267 529.922C126.839 528.982 124.456 527.975 122.118 526.902L120.594 526.208C118.348 525.159 116.147 524.064 113.984 522.905C113.801 522.814 113.628 522.723 113.445 522.622C112.605 522.184 111.774 521.71 110.952 521.263C97.6966 513.849 85.6422 504.469 75.1999 493.443C74.8985 493.142 74.6155 492.832 74.2869 492.531C72.835 490.961 71.4106 489.365 70.0322 487.731C69.5209 487.129 69.0096 486.527 68.5076 485.907C66.8733 483.908 65.2938 481.868 63.7692 479.784C63.541 479.483 63.3216 479.173 63.1027 478.872C56.8679 470.248 51.6964 460.904 47.7004 451.043C47.5725 450.742 47.4539 450.432 47.3442 450.131C46.1299 447.001 45.0191 443.817 44.0119 440.578C43.6009 439.227 43.2086 437.84 42.8613 436.49C42.7427 436.088 42.633 435.678 42.5327 435.276C37.5389 415.459 37 394.847 37 374.354V367.192C37.1462 334.043 37.6575 300.329 42.5511 267.637C42.5705 267.41 42.604 267.185 42.6514 266.962C44.2949 255.957 46.5227 245.048 49.3254 234.279C52.2686 222.983 56.0247 211.914 60.5644 201.158C71.8216 174.698 88.1918 150.62 106.369 128.302C152.11 72.1788 212.158 24.9975 282.44 7.39695C358.173 -11.6088 442.342 6.60315 503.43 55.2078C521.444 69.5328 537.686 86.4125 557.653 97.7813C558.328 98.1736 559.013 98.5568 559.707 98.9309C562.346 100.363 565.042 101.665 567.796 102.836C571.445 104.394 575.201 105.69 579.035 106.714C591.169 109.971 603.85 110.263 615.947 106.221C616.933 105.884 617.919 105.528 618.896 105.135C620.969 104.314 622.95 103.548 624.858 102.836C637.877 97.9911 647.902 95.6371 663.724 96.4857C701.299 98.6012 738.342 106.349 773.612 119.47C775.036 119.99 776.461 120.528 777.876 121.066C869.823 156.24 948.88 226.086 989.946 315.841C991.041 318.213 992.097 320.603 993.114 323.012C1017.61 380.148 1026.45 447.183 999.432 502.896Z" fill="#F2F2F2"/>
<path d="M252 523C248.997 523.997 245.997 524.997 243 526V523H252Z" fill="white"/>
<path d="M579 133H557V186H579V133Z" fill="#E4E4E4"/>
<path d="M616 103V641C588.777 636.986 561.938 630.705 535.764 622.224C530.691 620.58 525.648 618.855 520.635 617.048C519.282 616.573 517.929 616.071 516.585 615.578C510.935 613.488 505.329 611.294 499.765 608.997C495.084 607.071 490.431 605.072 485.805 603C481.253 600.946 476.731 598.825 472.239 596.637C464.889 593.041 457.619 589.271 450.427 585.328C444.878 582.261 439.403 579.078 434 575.78V103H616Z" fill="#E4E4E4"/>
<path d="M689 103V646C680.382 646.009 671.764 645.787 663.145 645.334C660.673 645.206 658.2 645.06 655.728 644.896C642.7 644.029 629.715 642.64 616.773 640.727C616.518 640.691 616.255 640.655 616 640.609V103H689Z" fill="#CACACA"/>
<path d="M494 156H467V184H494V156Z" fill="white"/>
<path d="M538 156H511V184H538V156Z" fill="white"/>
<path d="M583 156H555V184H583V156Z" fill="white"/>
<path d="M495 219H467V246H495V219Z" fill="white"/>
<path d="M539 219H512V246H539V219Z" fill="white"/>
<path d="M583 219H556V246H583V219Z" fill="white"/>
<path d="M496 282H468V309H496V282Z" fill="white"/>
<path d="M540 282H512V309H540V282Z" fill="white"/>
<path d="M584 282H557V309H584V282Z" fill="white"/>
<path d="M496 344H469V372H496V344Z" fill="white"/>
<path d="M541 344H513V372H541V344Z" fill="white"/>
<path d="M585 344H557V372H585V344Z" fill="white"/>
<path d="M497 407H470V434H497V407Z" fill="white"/>
<path d="M541 407H514V434H541V407Z" fill="white"/>
<path d="M586 407H558V434H586V407Z" fill="white"/>
<path d="M498 469H470V497H498V469Z" fill="white"/>
<path d="M542 469H515V497H542V469Z" fill="white"/>
<path d="M586 469H559V497H586V469Z" fill="white"/>
<path d="M499 532H471V560H499V532Z" fill="white"/>
<path d="M543 532H515V560H543V532Z" fill="white"/>
<path d="M587 532H560V560H587V532Z" fill="white"/>
<path d="M499 595V609C494.409 607.11 489.844 605.148 485.307 603.115C480.841 601.1 476.406 599.019 472 596.872V595H499Z" fill="white"/>
<path d="M544 595V622H535.503C530.344 620.386 525.216 618.692 520.118 616.917C518.743 616.451 517.367 615.958 516 615.474V595L544 595Z" fill="white"/>
<path d="M588 595H561V622H588V595Z" fill="white"/>
<path d="M828 326H806V358H828V326Z" fill="#E4E4E4"/>
<path d="M845 355V620.046C794.968 637.461 742.029 645.972 688.999 646C680.332 646.009 671.666 645.787 663 645.334V355H845Z" fill="#E4E4E4"/>
<path d="M918 355V586.178C904.085 594.565 889.615 601.99 874.691 608.401C864.927 612.638 855.03 616.504 845 620V355H918Z" fill="#CACACA"/>
<path d="M726 407H699V434H726V407Z" fill="white"/>
<path d="M771 407H743V434H771V407Z" fill="white"/>
<path d="M815 407H787V434H815V407Z" fill="white"/>
<path d="M727 469H700V497H727V469Z" fill="white"/>
<path d="M771 469H744V497H771V469Z" fill="white"/>
<path d="M816 469H788V497H816V469Z" fill="white"/>
<path d="M728 532H700V560H728V532Z" fill="white"/>
<path d="M772 532H745V560H772V532Z" fill="white"/>
<path d="M816 532H789V560H816V532Z" fill="white"/>
<path d="M729 595H701V622H729V595Z" fill="white"/>
<path d="M773 595H745V622H773V595Z" fill="white"/>
<path d="M817 595H790V622H817V595Z" fill="white"/>
<path d="M684 654.635C684 654.635 693.833 689.534 735.015 687.948C776.197 686.361 794 654 794 654L684 654.635Z" fill="#3F3D56"/>
<path d="M119.719 519.401L108 540.78L109.903 580.906L390.718 664.021L513 679L489.094 533.739L405.438 518.984L279.944 522.556L173.549 503L119.719 519.401Z" fill="#2F2E41"/>
<path d="M158.716 659.999H151.502C144.528 660.024 137.692 658.045 131.804 654.295C125.915 650.545 121.219 645.181 118.271 638.837C107.15 614.469 110.444 580.773 110.493 580.293C113.013 551.168 128.917 532.166 150.071 533.028C173.423 533.973 193.337 615.042 194.173 618.493C195.561 624.312 195.196 630.414 193.124 636.024C190.547 643.09 185.859 649.185 179.7 653.477C173.541 657.768 166.213 660.046 158.716 659.999Z" fill="#3F3D56"/>
<path d="M454.257 716C453.012 715.971 451.771 715.851 450.544 715.642C441.131 714.162 432.233 710.371 424.651 704.609C417.068 698.848 411.038 691.297 407.103 682.634C404.153 676.232 401.316 669.676 398.669 663.149C388.04 636.939 396.95 591.119 411.428 573.384C424.206 557.73 437.067 557.854 456.537 558.038C458.536 558.057 460.607 558.076 462.756 558.08C484.373 558.115 507.227 637.487 514.737 663.569C515.334 665.644 515.829 667.362 516.211 668.65C517.388 672.613 517.248 677.354 515.795 682.738C511.213 699.727 496.112 712.326 478.217 714.091C465.365 715.358 457.303 716 454.257 716Z" fill="#3F3D56"/>
<path d="M109.685 580.881C109.685 580.881 101.462 544.129 113.797 519.099L126.229 489L173.207 532.723L183.934 601.138L367.767 629.04C367.767 629.04 356.382 516.881 427.86 512.445C499.339 508.01 533.255 629.04 533.255 629.04L568.92 655.02L817.514 636.644C817.514 636.644 821.902 648.683 815.597 655.02C809.291 661.356 507.562 681 507.562 681C507.562 681 492.381 530.822 432.288 544.762C372.195 558.703 390.168 664.369 390.168 664.369L175.471 626.505C175.471 626.505 168.513 524.485 133.09 524.485C97.6666 524.485 109.685 580.881 109.685 580.881Z" fill="#3F3D56"/>
<path d="M152.772 453.455L193.206 390.1L365.609 380L556.957 382.525L646 465.219L370.66 481L149 469.007L152.772 453.455Z" fill="#3F3D56"/>
<path d="M152.254 453C152.254 453 117.795 453.719 114 518.907C114 518.907 150.689 452.453 182.318 600.55L371.143 631.245C371.143 631.245 364.184 507.831 435.666 517.325C507.147 526.818 524.226 640.105 524.226 640.105C524.226 640.105 538.143 667.953 614.685 663.522C691.227 659.092 805.723 652.13 817.742 636.308C817.742 636.308 845.576 542.007 758.913 481.25L646.314 464.795L391.385 469.858L152.254 453Z" fill="#329DFF"/>
<path d="M238.642 498H217.392C216.816 498.002 216.245 497.888 215.712 497.662C215.18 497.437 214.695 497.106 214.287 496.688C213.879 496.27 213.556 495.773 213.335 495.226C213.114 494.679 213 494.092 213 493.5C213 492.908 213.114 492.321 213.335 491.774C213.556 491.227 213.879 490.73 214.287 490.312C214.695 489.894 215.18 489.563 215.712 489.338C216.245 489.112 216.816 488.998 217.392 489H238.642C239.799 489.005 240.908 489.481 241.724 490.324C242.541 491.167 243 492.309 243 493.5C243 494.691 242.541 495.833 241.724 496.676C240.908 497.519 239.799 497.995 238.642 498Z" fill="#CACACA"/>
<path d="M566 635C573.732 635 580 628.732 580 621C580 613.268 573.732 607 566 607C558.268 607 552 613.268 552 621C552 628.732 558.268 635 566 635Z" fill="white"/>
<path d="M559.227 553C549.753 553 538.442 548.916 528.318 541.04C510.453 527.142 502.948 506.621 511.587 495.296C520.226 483.97 541.789 486.063 559.654 499.96C568.287 506.677 574.788 515.119 577.957 523.729C581.145 532.392 580.587 540.196 576.385 545.704C572.641 550.612 566.471 553 559.227 553Z" fill="white"/>
<path d="M806.447 534.985C799.401 534.985 786.745 527.895 774.215 516.389C766.704 509.491 760.482 502.099 756.694 495.572C752.847 488.942 751.97 483.955 754.226 481.529C756.482 479.102 761.555 479.577 768.509 482.865C775.355 486.102 783.261 491.683 790.772 498.58C806.623 513.135 815.403 528.447 810.761 533.44C810.191 533.984 809.513 534.403 808.769 534.669C808.026 534.935 807.235 535.043 806.447 534.985Z" fill="white"/>
<path d="M218.841 453C218.69 453 218.538 452.993 218.386 452.979L172.481 448.74C171.643 448.663 170.839 448.374 170.146 447.901C169.452 447.429 168.891 446.788 168.516 446.04C168.142 445.292 167.966 444.461 168.005 443.626C168.045 442.792 168.298 441.981 168.742 441.271L194.628 399.82C195.051 399.141 195.635 398.576 196.328 398.172C197.021 397.769 197.803 397.54 198.606 397.505L232.844 396.005C233.632 395.97 234.416 396.123 235.131 396.451C235.846 396.779 236.473 397.272 236.957 397.89C237.441 398.507 237.77 399.23 237.915 400C238.061 400.769 238.019 401.561 237.793 402.311L223.573 449.502C223.266 450.511 222.641 451.397 221.788 452.027C220.936 452.656 219.903 452.998 218.841 453Z" fill="white"/>
<path d="M338.831 463C338.38 463 337.926 462.978 337.469 462.934L258.445 455.185C256.448 454.989 254.517 454.361 252.788 453.346C251.06 452.331 249.574 450.952 248.435 449.306C247.297 447.659 246.532 445.786 246.196 443.815C245.859 441.844 245.958 439.824 246.486 437.895L257.854 396.345C258.619 393.51 260.279 390.996 262.59 389.173C264.9 387.351 267.738 386.317 270.683 386.224L334.459 384.006C337.92 383.903 341.293 385.093 343.918 387.341C346.543 389.59 348.229 392.734 348.645 396.157L353.908 441.378C354.084 442.886 354.007 444.413 353.681 445.897L352.298 452.194C351.625 455.254 349.923 457.993 347.474 459.958C345.025 461.924 341.976 462.997 338.831 463Z" fill="white"/>
<path d="M401.203 465C398.888 464.993 396.643 464.203 394.831 462.759C393.019 461.315 391.746 459.301 391.217 457.042L377.264 396.588C376.916 395.082 376.912 393.517 377.252 392.009C377.592 390.501 378.267 389.09 379.226 387.88C380.186 386.67 381.406 385.692 382.795 385.021C384.184 384.349 385.706 384 387.248 384H552.708C554.079 384.003 555.437 384.281 556.7 384.817C557.963 385.352 559.107 386.136 560.064 387.121L614.108 442.974C615.496 444.409 616.437 446.219 616.815 448.181C617.192 450.144 616.99 452.175 616.234 454.024C615.477 455.874 614.199 457.462 612.555 458.594C610.911 459.726 608.974 460.352 606.98 460.397L401.43 464.998C401.354 464.999 401.278 465 401.203 465Z" fill="white"/>
<path d="M192 392.06L193.409 389.868C193.409 389.868 201.615 367.316 314.606 363.557C427.597 359.799 533.013 361.678 557 382.351L361.949 381.724L197.196 393L192 392.06Z" fill="#329DFF"/>
<path d="M137.5 554C125.626 554 116 573.923 116 598.5C116 623.077 125.626 643 137.5 643C149.374 643 159 623.077 159 598.5C159 573.923 149.374 554 137.5 554ZM138.449 563.536C141.068 563.536 143.191 568.659 143.191 574.979C143.191 581.298 141.068 586.421 138.449 586.421C135.829 586.421 133.706 581.298 133.706 574.979C133.706 568.659 135.829 563.536 138.449 563.536ZM141.294 598.5C141.294 600.607 139.878 602.314 138.132 602.314C136.386 602.314 134.971 600.607 134.971 598.5C134.971 596.393 136.386 594.686 138.132 594.686C139.878 594.686 141.294 596.393 141.294 598.5V598.5ZM124.774 600.948C120.708 601.264 117.306 600.139 117.175 598.436C117.044 596.733 120.234 595.096 124.3 594.78C128.366 594.465 131.768 595.589 131.899 597.293C132.03 598.996 128.84 600.632 124.774 600.948L124.774 600.948ZM138.449 633.464C135.829 633.464 133.706 628.341 133.706 622.021C133.706 615.702 135.829 610.579 138.449 610.579C141.068 610.579 143.191 615.702 143.191 622.021C143.191 628.341 141.068 633.464 138.449 633.464H138.449ZM150.7 600.948C146.634 601.264 143.232 600.139 143.101 598.436C142.97 596.733 146.16 595.096 150.226 594.78C154.292 594.465 157.694 595.589 157.825 597.293C157.956 598.996 154.766 600.632 150.7 600.948L150.7 600.948Z" fill="#E4E4E4"/>
<path d="M438.5 584C419.446 584 404 609.296 404 640.5C404 671.704 419.446 697 438.5 697C457.554 697 473 671.704 473 640.5C473 609.296 457.554 584 438.5 584ZM417.889 644.74C412.325 645.165 407.669 643.652 407.49 641.361C407.31 639.07 411.676 636.869 417.24 636.444C422.805 636.019 427.461 637.532 427.64 639.823C427.819 642.114 423.454 644.315 417.889 644.74ZM438.52 687.846C434.936 687.846 432.03 680.955 432.03 672.454C432.03 663.954 434.936 657.063 438.52 657.063C442.105 657.063 445.011 663.954 445.011 672.454C445.011 680.955 442.105 687.846 438.52 687.846ZM433.389 640.816C433.389 637.469 435.677 634.755 438.5 634.755C441.323 634.755 443.611 637.469 443.611 640.816C443.611 644.163 441.323 646.876 438.5 646.876C435.677 646.876 433.389 644.163 433.389 640.816ZM438.52 624.569C434.936 624.569 432.03 617.678 432.03 609.177C432.03 600.676 434.936 593.785 438.52 593.785C442.105 593.785 445.011 600.676 445.011 609.177C445.011 617.677 442.105 624.569 438.52 624.569ZM460.398 643.477C454.834 643.902 450.178 642.389 449.999 640.098C449.82 637.807 454.186 635.606 459.75 635.181C465.314 634.756 469.97 636.269 470.149 638.56C470.328 640.851 465.963 643.053 460.398 643.477Z" fill="#E4E4E4"/>
<path d="M319 470.827L326.467 488.308C326.467 488.308 338.911 493.303 347 476.446L330.609 460L319 470.827Z" fill="#CACACA"/>
<path d="M308.5 475C294.991 475 284 467.598 284 458.5C284 449.402 294.991 442 308.5 442C322.009 442 333 449.402 333 458.5C333 467.598 322.009 475 308.5 475Z" fill="#CACACA"/>
<path d="M784.247 533L642.247 537.143C642.247 537.143 611.171 545.843 608 570.7C608 570.7 612.439 591 623.855 591C635.271 591 810.312 581.886 810.312 581.886C810.312 581.886 821.728 564.486 812.214 552.057C802.701 539.629 784.247 533 784.247 533Z" fill="#3F3D56"/>
<path d="M796.216 540.606L630.398 546.088L630.461 547.984L796.279 542.502L796.216 540.606Z" fill="#E4E4E4"/>
<path d="M802.249 546.616L621.906 554.787L621.992 556.682L802.335 548.511L802.249 546.616Z" fill="#E4E4E4"/>
<path d="M808.56 554.782L615.16 565.167L615.262 567.062L808.661 556.676L808.56 554.782Z" fill="#E4E4E4"/>
<path d="M418.395 694.639H402.716L395.254 634.158H418.395V694.639Z" fill="#FFD9C8"/>
<path d="M426.671 721.807H415.427L413.42 711.191L408.28 721.807H378.458C377.028 721.807 375.636 721.35 374.485 720.503C373.334 719.656 372.483 718.463 372.058 717.098C371.632 715.733 371.654 714.268 372.12 712.917C372.586 711.565 373.472 710.398 374.649 709.586L398.464 693.137V682.404L423.513 683.9L426.671 721.807Z" fill="#2F2E41"/>
<path d="M511.543 674.85L498.961 684.206L456.887 640.126L475.456 626.316L511.543 674.85Z" fill="#FFD9C8"/>
<path d="M534.393 691.713L525.37 698.423L517.425 691.101L519.635 702.688L495.704 720.485C494.557 721.338 493.167 721.802 491.738 721.809C490.309 721.817 488.914 721.367 487.758 720.525C486.603 719.684 485.746 718.495 485.314 717.133C484.882 715.77 484.896 714.305 485.355 712.951L494.651 685.54L488.247 676.927L509.24 663.179L534.393 691.713Z" fill="#2F2E41"/>
<path d="M436.648 382.59C436.648 382.59 466.397 408.293 452.671 481.567L435.914 553.364L490.563 644.033L473.138 665.232L402.094 567.094L376.349 506.7L369.125 399.211L436.648 382.59Z" fill="#2F2E41"/>
<path d="M390.539 523.911L388.75 551.624L394.226 669.72L419.992 665.232L424.916 581.15L390.539 523.911Z" fill="#2F2E41"/>
<path d="M59.8847 708.859L73.9064 708.858L80.5761 654.771L59.8828 654.772L59.8847 708.859Z" fill="#EDBEA9"/>
<path d="M56.3086 704.28L60.2552 704.28L75.6633 698.014L83.9216 704.279H83.9227C88.5897 704.28 93.0654 706.134 96.3655 709.434C99.6655 712.734 101.52 717.21 101.52 721.878V722.45L56.3094 722.451L56.3086 704.28Z" fill="#2F2E41"/>
<path d="M114.219 700.023L127.895 703.11L146.315 651.822L126.13 647.264L114.219 700.023Z" fill="#EDBEA9"/>
<path d="M111.74 694.769L115.589 695.638L131.999 692.92L138.675 700.851L138.676 700.851C143.228 701.88 147.186 704.674 149.678 708.62C152.17 712.567 152.992 717.341 151.965 721.894L151.839 722.452L107.738 712.494L111.74 694.769Z" fill="#2F2E41"/>
<path d="M42.124 378.201C35.5501 398.03 36.2451 419.553 43.7041 442.653L46.8927 572.713C46.8927 572.713 42.142 658.003 57.4717 688.016H79.7041L90.7116 564.924L92.0939 482.303L139.758 552.007L109.399 686.004L136.762 688.45L186.026 543.032L125.244 401.952L42.124 378.201Z" fill="#2F2E41"/>
<path d="M365.876 373.038C365.584 374.272 365.603 375.559 365.931 376.784C366.259 378.009 366.887 379.133 367.757 380.055C368.204 380.527 367.415 381.156 366.971 380.688C366.014 379.664 365.323 378.422 364.957 377.069C364.592 375.717 364.563 374.295 364.873 372.929C364.892 372.798 364.96 372.679 365.063 372.596C365.166 372.513 365.297 372.472 365.429 372.482C365.562 372.497 365.683 372.564 365.767 372.668C365.851 372.772 365.89 372.905 365.876 373.038Z" fill="white"/>
<path d="M259.865 293.151C258.927 294.384 257.731 295.396 256.36 296.117C254.989 296.838 253.476 297.249 251.929 297.322C250.382 297.395 248.838 297.128 247.405 296.539C245.972 295.951 244.686 295.055 243.637 293.916L209.109 308.933L212.473 289.658L244.744 278.352C246.775 276.716 249.336 275.882 251.941 276.008C254.545 276.133 257.014 277.211 258.877 279.035C260.741 280.859 261.871 283.303 262.053 285.905C262.235 288.507 261.456 291.085 259.865 293.151Z" fill="#EDBEA9"/>
<path d="M236.821 299.17L156.626 334.894L156.454 334.833L65.0519 302.259C58.2437 298.701 53.0532 292.674 50.5431 285.413C48.033 278.152 48.3933 270.206 51.5502 263.202C53.3001 259.333 55.8496 255.878 59.0309 253.064C62.2123 250.251 65.9533 248.144 70.0078 246.88C74.0623 245.617 78.3383 245.227 82.5544 245.736C86.7705 246.245 90.831 247.641 94.4687 249.832L162.489 290.81L228.447 282.261L236.821 299.17Z" fill="#838383"/>
<path d="M1015 723.5C1015 723.434 1014.96 723.369 1014.89 723.308C1014.82 723.248 1014.72 723.192 1014.59 723.146C1014.46 723.1 1014.31 723.063 1014.14 723.038C1013.97 723.013 1013.78 723 1013.6 723H1.40011C1.02878 723 0.672662 723.053 0.410087 723.146C0.147511 723.24 0 723.367 0 723.5C0 723.633 0.147511 723.76 0.410087 723.854C0.672662 723.947 1.02878 724 1.40011 724H1013.6C1013.78 724 1013.97 723.987 1014.14 723.962C1014.31 723.937 1014.46 723.9 1014.59 723.854C1014.72 723.808 1014.82 723.752 1014.89 723.692C1014.96 723.631 1015 723.566 1015 723.5Z" fill="white"/>
<path d="M129.21 406.118L48.3684 393.186C46.2481 392.507 44.2999 391.377 42.6576 389.874C41.0152 388.371 39.7175 386.53 38.8536 384.478C37.9897 382.426 37.5801 380.211 37.6528 377.986C37.7255 375.76 38.2789 373.577 39.2749 371.586L42.941 364.252L41.5169 287.203C41.3453 277.181 43.8159 267.29 48.6801 258.526C53.5444 249.762 60.6308 242.433 69.2264 237.278L77.1099 232.564L81.0941 222.445L117.832 223.341L117.939 236.612L131.095 257.593L131.095 257.68L130.269 371.878L126.643 383.663L132.126 397.37L129.21 406.118Z" fill="#838383"/>
<path d="M102.825 209.863C121.26 209.863 136.205 194.918 136.205 176.481C136.205 158.044 121.26 143.099 102.825 143.099C84.3899 143.099 69.4453 158.044 69.4453 176.481C69.4453 194.918 84.3899 209.863 102.825 209.863Z" fill="#EDBEA9"/>
<path d="M68.07 183.759C67.0744 179.564 67.5315 173.662 68.0941 169.438C69.5692 158.366 75.7178 147.839 85.0592 141.604C86.8304 140.259 88.9351 139.422 91.1466 139.185C93.3565 139.093 95.7519 140.276 96.4304 142.381C96.9871 140.992 97.8226 139.731 98.8855 138.677C99.9484 137.623 101.216 136.798 102.61 136.253C105.41 135.18 108.422 134.774 111.407 135.067C117.192 135.544 122.74 137.578 127.462 140.954C132.184 144.33 135.904 148.921 138.227 154.241C139.119 156.359 141.609 148.535 142.739 150.536C143.777 152.617 145.588 154.208 147.784 154.97C149.998 155.588 150.897 164.708 151.768 162.581C152.444 164.153 152.711 165.87 152.544 167.573C152.378 169.276 151.783 170.909 150.816 172.32C149.849 173.731 148.54 174.874 147.012 175.643C145.484 176.412 143.786 176.782 142.076 176.718C139.823 176.633 137.669 175.805 135.443 175.448C127.482 174.172 119.038 179.945 117.336 187.826C116.727 185.547 115.754 183.381 114.454 181.413C113.794 180.433 112.91 179.626 111.875 179.057C110.841 178.489 109.685 178.175 108.505 178.143C106.24 178.228 104.249 179.709 102.78 181.435C101.31 183.16 100.206 185.174 98.726 186.89C94.3823 191.926 88.5073 203.67 82.3171 202.814C77.432 202.138 69.4294 189.486 68.07 183.759Z" fill="#2F2E41"/>
<path d="M304.604 330.979C304.837 329.457 304.525 327.902 303.721 326.589C302.917 325.275 301.674 324.289 300.213 323.805L210.321 293.864C209.46 293.576 208.547 293.471 207.642 293.556L185.111 295.687L172.183 296.913L148.326 299.168C146.886 299.306 145.532 299.918 144.477 300.908C143.421 301.898 142.725 303.211 142.495 304.64L130.382 380.31C130.153 381.786 130.434 383.296 131.179 384.591C131.924 385.886 133.088 386.888 134.479 387.432L225.308 422.495C225.734 422.661 226.177 422.78 226.629 422.85C227.287 422.957 227.957 422.962 228.617 422.865L287.308 414.166C288.692 413.965 289.975 413.324 290.966 412.337C291.957 411.349 292.604 410.069 292.809 408.685L304.604 330.979Z" fill="white"/>
<path d="M136.537 382.099L227.366 417.161C227.499 417.213 227.643 417.23 227.784 417.21L286.468 408.512C286.642 408.488 286.803 408.408 286.927 408.284C287.052 408.16 287.132 407.999 287.157 407.825L298.958 330.118C298.985 329.928 298.945 329.735 298.845 329.572C298.745 329.408 298.592 329.284 298.411 329.221L297.806 329.017L208.514 299.287C208.473 299.272 208.431 299.262 208.388 299.257C208.319 299.244 208.248 299.24 208.178 299.246L153.224 304.446L148.863 304.855C148.684 304.875 148.516 304.952 148.385 305.075C148.254 305.198 148.167 305.361 148.137 305.539L136.026 381.206C135.996 381.391 136.031 381.581 136.124 381.743C136.217 381.905 136.363 382.031 136.537 382.099Z" fill="#FEDA14"/>
<path d="M134.478 387.436L225.307 422.498C225.735 422.662 226.179 422.779 226.632 422.844C227.29 422.953 227.961 422.962 228.621 422.869L287.305 414.171C288.69 413.969 289.973 413.327 290.965 412.339C291.956 411.351 292.604 410.071 292.811 408.686L304.603 330.979C304.777 329.833 304.646 328.662 304.221 327.584C304.161 327.44 304.101 327.297 304.032 327.162C303.564 326.177 302.852 325.329 301.964 324.698C301.429 324.314 300.839 324.013 300.214 323.805L300.108 323.768L210.327 293.863C209.961 293.746 209.586 293.655 209.206 293.59C208.687 293.517 208.161 293.507 207.64 293.56L185.113 295.684L172.186 296.917L148.325 299.17C147.349 299.261 146.406 299.572 145.568 300.081C145.503 300.112 145.441 300.149 145.383 300.192C145.341 300.219 145.301 300.249 145.264 300.281C144.532 300.781 143.909 301.425 143.434 302.173C142.959 302.921 142.641 303.758 142.499 304.633L130.378 380.309C130.149 381.786 130.431 383.297 131.176 384.593C131.921 385.889 133.086 386.891 134.478 387.436ZM144.107 304.897C144.255 303.99 144.657 303.143 145.267 302.456C145.452 302.235 145.659 302.034 145.884 301.855C146.501 301.356 147.229 301.017 148.007 300.865C148.16 300.833 148.316 300.811 148.472 300.799L188.648 297.003L207.797 295.181C207.927 295.166 208.046 295.168 208.166 295.161C208.456 295.155 208.746 295.177 209.032 295.225C209.295 295.259 209.553 295.321 209.803 295.409L299.69 325.352C299.761 325.377 299.823 325.401 299.894 325.427C300.711 325.731 301.43 326.253 301.97 326.937C302.398 327.461 302.71 328.069 302.886 328.721C303.063 329.374 303.099 330.056 302.994 330.724L291.192 408.44C291.037 409.476 290.554 410.436 289.812 411.176C289.07 411.916 288.111 412.399 287.074 412.552L228.381 421.25C227.542 421.37 226.685 421.272 225.894 420.966L135.064 385.914C134.023 385.503 133.152 384.751 132.595 383.781C132.037 382.811 131.826 381.68 131.996 380.573L144.107 304.897Z" fill="#3F3D56"/>
<path d="M145.067 300.695C145.115 300.557 145.2 300.435 145.312 300.342C145.349 300.312 145.389 300.285 145.43 300.261C145.468 300.247 145.507 300.223 145.545 300.208C145.727 300.135 145.93 300.131 146.115 300.198L148.006 300.865L240.365 333.449L261.981 331.165L274.078 329.889L299.68 327.178L301.969 326.938L302.414 326.889C302.606 326.871 302.798 326.921 302.957 327.03C303.116 327.139 303.231 327.3 303.284 327.486C303.296 327.528 303.304 327.572 303.308 327.616C303.327 327.792 303.288 327.97 303.197 328.121C303.107 328.273 302.969 328.392 302.806 328.459C302.733 328.489 302.657 328.509 302.58 328.519L299.465 328.846L274.253 331.511L265.438 332.44L240.355 335.09C240.282 335.094 240.209 335.093 240.135 335.088C240.091 335.074 240.046 335.061 239.993 335.046L145.883 301.855L145.564 301.742C145.49 301.718 145.422 301.681 145.363 301.631C145.221 301.527 145.115 301.38 145.062 301.211C145.009 301.043 145.011 300.862 145.067 300.695Z" fill="#3F3D56"/>
<path d="M226.879 423.083C226.666 423.049 226.476 422.932 226.349 422.759C226.222 422.585 226.168 422.368 226.201 422.155L239.46 334.156C239.493 333.942 239.609 333.749 239.783 333.621C239.957 333.492 240.175 333.438 240.389 333.47L240.397 333.471C240.609 333.505 240.8 333.622 240.927 333.796C241.054 333.969 241.107 334.186 241.075 334.399L227.815 422.399C227.783 422.613 227.667 422.805 227.492 422.934C227.318 423.062 227.1 423.116 226.886 423.084L226.879 423.083Z" fill="#3F3D56"/>
<path d="M260.491 417.5L251.672 418.431L261.987 331.161C261.987 331.161 273.765 329.029 274.08 329.884C274.274 330.395 260.575 416.94 260.491 417.5Z" fill="#3F3D56"/>
<path d="M174.111 298.056L184.615 296.686L274.586 330.028C274.586 330.028 262.253 331.409 261.342 331.399C260.795 331.397 177.308 298.97 174.111 298.056Z" fill="#3F3D56"/>
<path d="M227.264 381.751C225.843 382.368 224.305 382.666 222.756 382.624C221.208 382.582 219.687 382.202 218.302 381.509C216.917 380.816 215.7 379.827 214.738 378.613C213.776 377.399 213.092 375.989 212.734 374.482L175.273 370.697L187.632 355.527L221.311 361.447C223.882 361.013 226.523 361.538 228.734 362.922C230.944 364.305 232.571 366.452 233.304 368.954C234.038 371.457 233.829 374.142 232.715 376.5C231.602 378.859 229.662 380.727 227.264 381.751Z" fill="#EDBEA9"/>
<path d="M204.223 375.733L116.802 367.677L116.682 367.539L52.8796 294.427C48.6807 287.994 47.0998 280.199 48.4605 272.638C49.8212 265.077 54.0206 258.322 60.1989 253.756C63.6174 251.236 67.5307 249.469 71.6813 248.571C75.8319 247.673 80.1256 247.664 84.2799 248.545C88.4342 249.426 92.3548 251.177 95.7837 253.682C99.2125 256.188 102.072 259.391 104.174 263.082L143.471 332.09L205.185 356.888L204.223 375.733Z" fill="#838383"/>
<path d="M423.645 235.133C421.474 219.208 418.751 202.11 407.52 190.613C403.956 186.965 399.69 184.077 394.98 182.123C390.27 180.168 385.213 179.188 380.114 179.24C375.015 179.293 369.979 180.378 365.31 182.43C360.642 184.481 356.437 187.457 352.949 191.178C344.774 199.901 341.163 212.149 340.833 224.1C340.502 236.051 343.164 247.869 346.116 259.455C361.741 259.767 377.25 256.714 391.591 250.503C395.177 248.946 398.705 247.187 402.494 246.222C406.283 245.258 408.983 247.685 412.508 249.377L414.442 245.672C416.026 248.62 420.93 247.746 422.708 244.912C424.487 242.078 424.097 238.449 423.645 235.133Z" fill="#2F2E41"/>
<path d="M361.71 324.023L297.885 325.388C296.904 323.693 295.453 322.32 293.707 321.436C291.961 320.551 289.995 320.193 288.049 320.406C286.104 320.618 284.261 321.391 282.747 322.631C281.232 323.872 280.111 325.525 279.519 327.391C278.928 329.257 278.891 331.255 279.414 333.141C279.936 335.028 280.996 336.721 282.464 338.016C283.932 339.312 285.744 340.152 287.681 340.436C289.618 340.719 291.595 340.434 293.373 339.614C301.838 340.095 368.064 349.496 372.015 343.438C376.025 337.289 397.429 315.589 397.429 315.589L380.976 292.164L361.71 324.023Z" fill="#FFD9C8"/>
<path d="M377.261 250.89C393.822 250.89 407.248 237.463 407.248 220.9C407.248 204.337 393.822 190.91 377.261 190.91C360.699 190.91 347.273 204.337 347.273 220.9C347.273 237.463 360.699 250.89 377.261 250.89Z" fill="#FFD9C8"/>
<path d="M425.29 278.602C421.756 271.569 420.039 262.879 412.505 260.599C407.417 259.059 386.841 261.367 382.204 263.966C374.492 268.29 381.481 276.392 376.931 283.973C371.985 292.215 358.542 308.756 353.596 316.998C350.195 322.664 361.649 339.295 359.811 345.643C357.972 351.99 357.884 359.114 361.016 364.933C363.819 370.141 359.763 374.748 362.583 379.948C365.514 385.355 369.112 405.574 366.384 411.087L364.557 416.567C382.685 417.633 397.928 395.974 415.943 393.692C420.418 393.125 425.064 392.385 428.752 389.788C434.183 385.961 436.33 379.018 437.672 372.511C444.131 340.703 439.772 307.649 425.29 278.602Z" fill="#3F3D56"/>
<path d="M452.472 352.87C449.947 345.978 445.376 315.841 445.376 315.841L416.764 315.002L430.753 349.506L392.581 402.947C392.581 402.947 392.652 403.065 392.78 403.274C390.773 402.952 388.716 403.243 386.877 404.11C385.039 404.976 383.504 406.378 382.475 408.131C381.446 409.884 380.97 411.907 381.11 413.935C381.249 415.963 381.997 417.901 383.257 419.497C384.516 421.093 386.228 422.271 388.168 422.878C390.107 423.485 392.185 423.492 394.129 422.898C396.073 422.304 397.793 421.137 399.063 419.55C400.333 417.963 401.094 416.03 401.247 414.003C401.388 414.083 401.552 414.112 401.712 414.085C401.872 414.058 402.017 413.975 402.122 413.852C406.37 408.522 454.998 359.763 452.472 352.87Z" fill="#FFD9C8"/>
<path d="M455.379 333.837C452.753 322.752 450.107 311.607 445.679 301.111C441.252 290.615 434.913 280.701 425.999 273.61C423.148 271.343 419.962 269.342 416.389 268.638C412.816 267.933 408.79 268.722 406.28 271.361C402.265 275.585 403.473 282.364 404.946 288.003C409.288 304.628 413.631 321.254 417.973 337.88C430.514 336.55 443.055 335.221 455.595 333.892L455.379 333.837Z" fill="#3F3D56"/>
<path d="M414.008 225.06C412.904 217.805 411.75 210.489 409.156 203.658C406.561 196.827 402.379 190.428 396.38 186.559C386.882 180.432 374.585 181.614 363.935 185.138C355.7 187.863 347.661 192.006 341.853 198.666C336.045 205.326 332.783 214.829 334.944 223.537C346.303 220.853 357.663 218.169 369.022 215.485L367.779 216.363C371.508 218.223 374.766 220.909 377.303 224.216C379.84 227.523 381.59 231.364 382.421 235.449C383.234 239.583 383.117 243.846 382.08 247.929C381.043 252.013 379.111 255.815 376.424 259.06C384.171 256.311 391.919 253.563 399.666 250.815C404.448 249.118 409.566 247.163 412.401 242.812C415.689 237.767 414.925 231.08 414.008 225.06Z" fill="#2F2E41"/>
</svg>
