<svg width="894" height="750" viewBox="0 0 894 750" fill="none" xmlns="http://www.w3.org/2000/svg">
<g clip-path="url(#clip0_156_1687)">
<path d="M581.757 741.149L414.345 439.311C414.298 438.572 414.069 437.857 413.679 437.228C413.289 436.598 412.751 436.075 412.11 435.703C411.376 435.283 410.537 435.08 409.692 435.119C409.665 435.117 409.638 435.119 409.61 435.117C409.583 435.119 409.556 435.117 409.529 435.119C408.384 435.065 407.262 435.457 406.398 436.211C405.535 436.966 404.997 438.025 404.896 439.167L227.463 741.149C227.168 741.66 226.976 742.225 226.898 742.811C226.821 743.397 226.86 743.993 227.012 744.564C227.165 745.135 227.429 745.67 227.789 746.139C228.149 746.609 228.597 747.002 229.109 747.298C229.621 747.593 230.186 747.785 230.772 747.862C231.359 747.939 231.954 747.9 232.525 747.747C233.096 747.594 233.631 747.33 234.1 746.97C234.569 746.61 234.962 746.161 235.257 745.649L409.491 449.112L573.964 745.649C574.259 746.161 574.652 746.61 575.121 746.97C575.59 747.33 576.125 747.594 576.696 747.747C577.267 747.9 577.862 747.939 578.449 747.862C579.035 747.785 579.6 747.593 580.112 747.298C580.624 747.002 581.072 746.609 581.432 746.139C581.792 745.67 582.056 745.135 582.209 744.564C582.361 743.993 582.4 743.397 582.323 742.811C582.245 742.225 582.053 741.66 581.757 741.149Z" fill="#3F3D56"/>
<path d="M381.871 689.362L400.794 685.02L393.053 609.967L365.125 616.374L381.871 689.362Z" fill="#FFB6B6"/>
<path d="M396.503 653.104L369.573 659.282L360.963 642.455L360.475 641.858C356.656 637.17 354.535 631.327 354.46 625.28L332.077 566.073L330.247 565.203C328.831 564.529 327.576 563.562 326.564 562.364C325.551 561.167 324.807 559.767 324.378 558.259C323.95 556.751 323.849 555.168 324.081 553.618C324.313 552.067 324.873 550.584 325.724 549.267L323.355 543L256.493 543.122L256.426 543.104L174.32 520.072L182.941 468.681L206.038 483.209C213.648 482.715 344.018 474.711 356.062 503.928C366.787 529.945 382.242 574.395 393.318 607.102C393.87 608.57 394.557 609.984 395.369 611.326C397.092 613.98 398.104 617.033 398.306 620.191C398.437 621.565 398.699 622.923 399.089 624.247C403.692 638.01 396.678 652.741 396.607 652.889L396.503 653.104Z" fill="#2F2E41"/>
<path d="M375.477 683.086L381.629 681.675L403.408 666.396L418.522 673.21L418.524 673.21C425.8 671.541 433.44 672.831 439.764 676.795C446.089 680.759 450.58 687.073 452.249 694.349L452.454 695.24L381.975 711.41L375.477 683.086Z" fill="#2F2E41"/>
<path d="M96.0843 684.772C98.0082 663.831 110.275 642.865 129.948 635.438C122.793 657.159 123.551 680.71 132.089 701.925C135.411 710.095 139.957 718.836 137.349 727.261C135.727 732.504 131.478 736.611 126.666 739.249C121.854 741.886 116.462 743.243 111.138 744.574L110.111 745.48C100.983 726.536 94.1604 705.713 96.0843 684.772Z" fill="#F0F0F0"/>
<path d="M130.161 635.826C118.993 649.178 112.317 665.709 111.08 683.071C110.747 686.804 111.005 690.566 111.844 694.219C112.776 697.751 114.637 700.969 117.233 703.538C119.606 705.982 122.316 708.208 124.053 711.186C124.919 712.724 125.451 714.428 125.613 716.185C125.775 717.943 125.564 719.715 124.993 721.386C123.678 725.584 120.934 729.061 118.131 732.367C115.02 736.038 111.73 739.801 110.511 744.574C110.363 745.153 109.474 744.89 109.622 744.312C111.743 736.008 119.58 731.077 123.151 723.544C124.818 720.029 125.435 715.99 123.651 712.394C122.092 709.248 119.299 706.951 116.875 704.497C114.306 702.028 112.38 698.967 111.266 695.581C110.244 691.983 109.842 688.237 110.077 684.504C110.471 676.091 112.186 667.793 115.158 659.912C118.5 650.9 123.359 642.525 129.525 635.151C129.907 634.695 130.54 635.373 130.161 635.826L130.161 635.826Z" fill="white"/>
<path d="M111.148 677.457C108.263 676.854 105.687 675.245 103.879 672.918C102.071 670.59 101.149 667.696 101.278 664.752C101.284 664.632 101.337 664.519 101.425 664.437C101.512 664.355 101.629 664.31 101.749 664.313C101.869 664.315 101.984 664.363 102.069 664.448C102.154 664.533 102.202 664.648 102.204 664.768C102.079 667.51 102.938 670.206 104.627 672.37C106.315 674.533 108.721 676.022 111.41 676.568C111.995 676.687 111.729 677.575 111.148 677.457H111.148Z" fill="white"/>
<path d="M115.865 702.457C120.936 699.204 124.595 694.159 126.111 688.329C126.261 687.751 127.15 688.014 127 688.591C125.411 694.655 121.593 699.897 116.309 703.271C115.805 703.592 115.364 702.776 115.865 702.457H115.865Z" fill="white"/>
<path d="M119.388 651.749C120.455 652.215 121.622 652.409 122.783 652.312C123.944 652.216 125.062 651.833 126.039 651.197C126.538 650.87 126.978 651.686 126.482 652.011C125.4 652.708 124.164 653.13 122.882 653.239C121.599 653.349 120.31 653.142 119.126 652.638C119.01 652.6 118.913 652.519 118.855 652.412C118.797 652.306 118.782 652.18 118.812 652.063C118.848 651.945 118.928 651.846 119.036 651.788C119.143 651.729 119.27 651.715 119.388 651.749H119.388Z" fill="white"/>
<path d="M191.781 670.745C191.475 670.958 191.169 671.172 190.862 671.393C186.762 674.282 182.902 677.5 179.323 681.014C179.042 681.281 178.761 681.557 178.488 681.831C169.954 690.39 163.083 700.459 158.225 711.526C156.296 715.931 154.704 720.477 153.465 725.124C151.753 731.542 150.408 738.637 146.783 743.958C146.411 744.517 146.005 745.053 145.567 745.562L111.299 746.663C111.22 746.626 111.141 746.597 111.061 746.561L109.695 746.667C109.743 746.423 109.797 746.171 109.844 745.927C109.871 745.785 109.905 745.643 109.932 745.501C109.952 745.407 109.973 745.312 109.986 745.226C109.992 745.194 109.999 745.163 110.006 745.139C110.019 745.053 110.04 744.974 110.053 744.895C110.352 743.484 110.662 742.074 110.982 740.662C110.981 740.655 110.981 740.655 110.989 740.647C113.323 729.87 116.928 719.409 121.727 709.481C121.875 709.187 122.021 708.885 122.184 708.59C124.413 704.193 126.997 699.984 129.911 696.008C131.514 693.835 133.226 691.746 135.04 689.746C139.737 684.59 145.217 680.204 151.277 676.75C163.359 669.866 177.508 666.922 190.77 670.464C191.11 670.555 191.442 670.646 191.781 670.745Z" fill="#F0F0F0"/>
<path d="M191.715 671.183C174.76 675.12 159.477 684.3 148.036 697.417C145.523 700.198 143.464 703.357 141.934 706.778C140.552 710.159 140.101 713.849 140.627 717.463C141.049 720.844 141.873 724.252 141.467 727.676C141.233 729.426 140.632 731.106 139.703 732.607C138.774 734.108 137.538 735.396 136.077 736.386C132.499 738.947 128.215 740.07 123.987 741.022C119.293 742.08 114.4 743.104 110.553 746.181C110.086 746.554 109.535 745.809 110.001 745.437C116.694 740.083 125.92 740.865 133.307 737.001C136.754 735.197 139.678 732.344 140.419 728.398C141.068 724.948 140.221 721.433 139.764 718.014C139.199 714.495 139.504 710.892 140.653 707.518C142.003 704.03 143.937 700.797 146.372 697.957C151.752 691.478 158.118 685.884 165.235 681.381C173.33 676.198 182.252 672.437 191.615 670.261C192.194 670.127 192.291 671.049 191.715 671.183V671.183Z" fill="white"/>
<path d="M151.471 692.976C149.531 690.758 148.442 687.922 148.4 684.975C148.357 682.028 149.364 679.162 151.239 676.889C151.62 676.43 152.351 677.001 151.969 677.46C150.219 679.574 149.282 682.244 149.327 684.988C149.372 687.732 150.397 690.369 152.216 692.424C152.61 692.871 151.864 693.42 151.471 692.976V692.976Z" fill="white"/>
<path d="M140.188 715.777C146.195 716.233 152.153 714.408 156.875 710.665C157.342 710.294 157.893 711.039 157.427 711.41C152.506 715.295 146.302 717.182 140.051 716.694C139.456 716.647 139.595 715.731 140.188 715.777V715.777Z" fill="white"/>
<path d="M173.529 677.41C174.101 678.425 174.916 679.282 175.901 679.904C176.886 680.526 178.01 680.893 179.172 680.973C179.768 681.013 179.628 681.929 179.036 681.89C177.752 681.796 176.511 681.388 175.422 680.703C174.332 680.019 173.427 679.077 172.784 677.962C172.715 677.862 172.687 677.739 172.704 677.619C172.722 677.499 172.785 677.389 172.881 677.314C172.98 677.241 173.103 677.211 173.225 677.229C173.346 677.247 173.455 677.312 173.529 677.41H173.529Z" fill="white"/>
<path d="M656.734 684.772C654.81 663.831 642.544 642.865 622.87 635.438C630.025 657.159 629.267 680.71 620.73 701.925C617.408 710.095 612.862 718.836 615.469 727.261C617.092 732.504 621.341 736.611 626.153 739.249C630.965 741.886 636.356 743.243 641.68 744.574L642.707 745.48C651.836 726.536 658.658 705.713 656.734 684.772Z" fill="#F0F0F0"/>
<path d="M622.66 635.826C633.827 649.178 640.503 665.709 641.74 683.071C642.073 686.804 641.815 690.566 640.976 694.219C640.044 697.751 638.184 700.969 635.587 703.538C633.215 705.982 630.505 708.208 628.768 711.186C627.901 712.724 627.369 714.428 627.207 716.185C627.045 717.943 627.257 719.715 627.828 721.386C629.142 725.584 631.887 729.061 634.689 732.367C637.8 736.038 641.09 739.801 642.31 744.574C642.457 745.153 643.346 744.89 643.199 744.312C641.077 736.008 633.24 731.077 629.669 723.544C628.003 720.029 627.386 715.99 629.169 712.394C630.729 709.248 633.521 706.951 635.945 704.497C638.515 702.028 640.44 698.967 641.554 695.581C642.576 691.983 642.978 688.237 642.744 684.504C642.349 676.091 640.635 667.793 637.663 659.912C634.321 650.9 629.461 642.525 623.295 635.151C622.913 634.695 622.281 635.373 622.66 635.826L622.66 635.826Z" fill="white"/>
<path d="M641.672 677.457C644.557 676.854 647.133 675.245 648.941 672.918C650.749 670.591 651.671 667.696 651.543 664.752C651.536 664.632 651.484 664.519 651.396 664.437C651.308 664.355 651.191 664.31 651.071 664.313C650.951 664.315 650.836 664.363 650.751 664.448C650.666 664.534 650.618 664.648 650.616 664.768C650.741 667.51 649.882 670.206 648.193 672.37C646.505 674.533 644.099 676.022 641.41 676.568C640.825 676.687 641.091 677.576 641.672 677.457Z" fill="white"/>
<path d="M636.956 702.457C631.886 699.204 628.227 694.159 626.711 688.329C626.561 687.751 625.672 688.014 625.822 688.591C627.411 694.655 631.229 699.897 636.513 703.271C637.017 703.592 637.458 702.776 636.956 702.457H636.956Z" fill="white"/>
<path d="M633.433 651.749C632.365 652.215 631.199 652.409 630.038 652.312C628.877 652.216 627.758 651.833 626.782 651.197C626.283 650.87 625.843 651.686 626.339 652.011C627.421 652.708 628.657 653.13 629.939 653.239C631.221 653.349 632.511 653.142 633.695 652.638C633.81 652.6 633.907 652.519 633.965 652.412C634.024 652.306 634.039 652.18 634.008 652.063C633.973 651.945 633.893 651.846 633.785 651.788C633.677 651.729 633.551 651.715 633.433 651.749H633.433Z" fill="white"/>
<path d="M561.043 670.745C561.349 670.958 561.655 671.172 561.961 671.393C566.062 674.282 569.922 677.5 573.501 681.014C573.782 681.281 574.063 681.557 574.336 681.831C582.87 690.39 589.741 700.459 594.599 711.526C596.528 715.931 598.12 720.477 599.359 725.124C601.071 731.542 602.416 738.637 606.041 743.958C606.413 744.517 606.819 745.053 607.257 745.562L641.525 746.663C641.604 746.626 641.683 746.597 641.763 746.561L643.129 746.667C643.081 746.423 643.027 746.171 642.98 745.927C642.953 745.785 642.919 745.643 642.892 745.501C642.872 745.407 642.851 745.312 642.838 745.226C642.832 745.194 642.825 745.163 642.818 745.139C642.805 745.053 642.784 744.974 642.771 744.895C642.472 743.484 642.162 742.074 641.842 740.662C641.843 740.655 641.843 740.655 641.835 740.647C639.501 729.87 635.896 719.409 631.097 709.482C630.949 709.187 630.803 708.885 630.64 708.59C628.411 704.193 625.827 699.984 622.912 696.008C621.31 693.835 619.598 691.746 617.784 689.746C613.086 684.59 607.607 680.204 601.547 676.75C589.465 669.866 575.316 666.922 562.054 670.464C561.714 670.555 561.382 670.646 561.043 670.745Z" fill="#F0F0F0"/>
<path d="M561.105 671.183C578.06 675.12 593.343 684.3 604.784 697.417C607.297 700.198 609.356 703.357 610.886 706.778C612.268 710.159 612.72 713.849 612.194 717.463C611.771 720.844 610.947 724.252 611.353 727.676C611.587 729.426 612.188 731.106 613.117 732.607C614.046 734.108 615.282 735.396 616.744 736.386C620.321 738.947 624.605 740.07 628.833 741.022C633.528 742.08 638.42 743.104 642.268 746.181C642.734 746.554 643.285 745.809 642.82 745.437C636.126 740.083 626.9 740.865 619.513 737.001C616.067 735.197 613.142 732.344 612.401 728.398C611.752 724.948 612.599 721.433 613.057 718.014C613.622 714.495 613.316 710.892 612.167 707.518C610.817 704.03 608.883 700.797 606.448 697.957C601.068 691.478 594.703 685.884 587.585 681.381C579.49 676.198 570.569 672.437 561.206 670.261C560.626 670.127 560.529 671.049 561.105 671.183V671.183Z" fill="white"/>
<path d="M601.349 692.976C603.289 690.758 604.377 687.922 604.42 684.975C604.462 682.028 603.456 679.162 601.58 676.889C601.199 676.43 600.469 677.001 600.85 677.46C602.601 679.574 603.538 682.244 603.493 684.988C603.448 687.732 602.423 690.369 600.604 692.424C600.209 692.871 600.956 693.42 601.349 692.976V692.976Z" fill="white"/>
<path d="M612.635 715.777C606.628 716.233 600.669 714.408 595.948 710.665C595.48 710.294 594.929 711.039 595.396 711.41C600.316 715.295 606.521 717.182 612.771 716.694C613.367 716.647 613.227 715.731 612.635 715.777V715.777Z" fill="white"/>
<path d="M579.292 677.41C578.72 678.425 577.905 679.282 576.92 679.904C575.935 680.526 574.811 680.893 573.649 680.973C573.053 681.013 573.193 681.929 573.785 681.89C575.069 681.796 576.309 681.388 577.399 680.703C578.489 680.019 579.394 679.077 580.036 677.962C580.106 677.862 580.134 677.739 580.116 677.619C580.098 677.499 580.035 677.389 579.94 677.314C579.841 677.241 579.717 677.211 579.596 677.229C579.475 677.247 579.365 677.312 579.292 677.41H579.292Z" fill="white"/>
<path d="M893.68 748.34C893.679 748.656 893.553 748.958 893.33 749.181C893.107 749.404 892.805 749.53 892.49 749.53H1.19C0.874395 749.53 0.57171 749.405 0.348541 749.182C0.125373 748.959 0 748.656 0 748.34C0 748.025 0.125373 747.722 0.348541 747.499C0.57171 747.276 0.874395 747.15 1.19 747.15H892.49C892.805 747.151 893.107 747.277 893.33 747.5C893.553 747.723 893.679 748.025 893.68 748.34Z" fill="white"/>
<path d="M574.113 288C576.599 288 578.613 285.985 578.613 283.5C578.613 281.015 576.599 279 574.113 279C571.628 279 569.613 281.015 569.613 283.5C569.613 285.985 571.628 288 574.113 288Z" fill="#3F3D56"/>
<path d="M517.762 318.162L578.429 280.048C578.978 279.703 579.591 279.473 580.231 279.371C580.871 279.27 581.525 279.3 582.154 279.458C582.782 279.617 583.372 279.901 583.888 280.294C584.403 280.687 584.834 281.18 585.153 281.744C585.473 282.308 585.675 282.93 585.747 283.575C585.819 284.219 585.76 284.871 585.573 285.491C585.386 286.112 585.076 286.688 584.66 287.185C584.244 287.683 583.732 288.09 583.154 288.384L519.285 320.849C518.931 321.029 518.52 321.066 518.139 320.951C517.758 320.836 517.436 320.579 517.24 320.233C517.044 319.887 516.989 319.479 517.086 319.093C517.183 318.707 517.425 318.374 517.762 318.162V318.162Z" fill="#E4E4E4"/>
<path d="M396.051 400.232C395.573 399.521 395.324 398.682 395.336 397.826C395.349 396.97 395.622 396.138 396.121 395.442C397.147 394.067 398.514 392.983 400.087 392.296C403.333 390.644 406.829 389.539 410.435 389.026C413.176 388.637 416.167 388.513 418.292 386.74C420.404 384.979 421.581 381.687 424.317 381.412C426.962 381.146 428.996 384.041 431.648 384.221C434.918 384.443 437.058 380.616 440.24 379.831C442.369 379.306 444.559 380.233 446.556 381.139L458.543 386.577L464.687 389.365C466.834 390.339 469.254 391.65 469.659 393.971C470.216 397.161 466.668 399.412 463.635 400.545C441.974 408.538 418.172 408.541 396.51 400.553" fill="#6C63FF"/>
<path d="M414.113 459C501.098 459 571.613 448.926 571.613 436.5C571.613 424.074 501.098 414 414.113 414C327.128 414 256.613 424.074 256.613 436.5C256.613 448.926 327.128 459 414.113 459Z" fill="#3F3D56"/>
<path d="M733.613 576H625.613C620.643 576 616.613 580.029 616.613 585C616.613 589.971 620.643 594 625.613 594H733.613C738.584 594 742.613 589.971 742.613 585C742.613 580.029 738.584 576 733.613 576Z" fill="#3F3D56"/>
<path d="M785.951 415.54L750.281 584.99L759.571 628.36L777.111 710.21V747C777.113 747.05 777.11 747.1 777.102 747.15C777.095 747.963 776.946 748.769 776.661 749.53H762.562C762.276 748.769 762.127 747.963 762.121 747.15C762.113 747.1 762.11 747.05 762.111 747V711.79L746.191 637.5L742.971 622.5L736.741 593.43L734.941 585.01V585L736.721 576.56L738.091 570.05L771.271 412.46C771.473 411.495 771.863 410.58 772.418 409.766C772.973 408.952 773.684 408.255 774.509 407.716C775.333 407.177 776.257 406.805 777.225 406.623C778.193 406.44 779.188 406.451 780.153 406.653C781.117 406.855 782.032 407.246 782.846 407.802C783.659 408.358 784.355 409.069 784.894 409.895C785.432 410.72 785.803 411.643 785.984 412.612C786.166 413.581 786.154 414.576 785.951 415.54L785.951 415.54Z" fill="#3F3D56"/>
<path d="M633.11 585V747C633.111 747.05 633.108 747.1 633.1 747.15C633.094 747.963 632.945 748.769 632.66 749.53H618.56C618.275 748.769 618.126 747.963 618.12 747.15C618.111 747.1 618.108 747.05 618.11 747V585C618.11 583.011 618.9 581.103 620.306 579.697C621.713 578.29 623.621 577.5 625.61 577.5C627.599 577.5 629.507 578.29 630.913 579.697C632.32 581.103 633.11 583.011 633.11 585Z" fill="#3F3D56"/>
<path d="M643.613 558H715.613C722.774 558 729.642 560.845 734.705 565.908C739.769 570.972 742.613 577.839 742.613 585H616.613C616.613 577.839 619.458 570.972 624.521 565.908C629.585 560.845 636.452 558 643.613 558Z" fill="#3F3D56"/>
<path d="M751.613 637.5H625.613C623.624 637.5 621.716 636.71 620.31 635.303C618.903 633.897 618.113 631.989 618.113 630C618.113 628.011 618.903 626.103 620.31 624.697C621.716 623.29 623.624 622.5 625.613 622.5H751.613C753.602 622.5 755.51 623.29 756.917 624.697C758.323 626.103 759.113 628.011 759.113 630C759.113 631.989 758.323 633.897 756.917 635.303C755.51 636.71 753.602 637.5 751.613 637.5Z" fill="#3F3D56"/>
<path d="M165.522 594.272H292.613C297.584 594.272 301.613 590.243 301.613 585.272V582.545C301.613 577.575 297.584 573.545 292.613 573.545H165.522C160.552 573.545 156.522 577.575 156.522 582.545V585.272C156.522 590.243 160.552 594.272 165.522 594.272Z" fill="#3F3D56"/>
<path d="M164.212 584.03L161.912 593.51L153.472 628.23L149.832 643.23L132.932 712.81V743C132.936 744.478 132.497 745.924 131.672 747.15C131.023 748.141 130.14 748.959 129.102 749.53H121.762C120.723 748.959 119.841 748.141 119.192 747.15C118.366 745.924 117.927 744.478 117.932 743V711.01L136.712 633.71L148.832 583.79L107.732 388.54C107.528 387.576 107.517 386.582 107.698 385.614C107.879 384.646 108.249 383.723 108.787 382.898C109.326 382.073 110.021 381.362 110.834 380.806C111.647 380.25 112.561 379.859 113.525 379.657C114.489 379.455 115.483 379.444 116.451 379.626C117.419 379.809 118.342 380.18 119.166 380.719C119.991 381.258 120.701 381.954 121.256 382.767C121.811 383.581 122.2 384.496 122.402 385.46L160.392 565.89L162.142 574.21L164.182 583.91L164.212 584.03Z" fill="#3F3D56"/>
<path d="M298.75 583.91V743C298.755 744.478 298.316 745.924 297.49 747.15C296.841 748.142 295.958 748.959 294.92 749.53H287.57C286.536 748.956 285.658 748.139 285.01 747.15C284.184 745.924 283.746 744.478 283.75 743V583.91C283.75 581.921 284.54 580.013 285.947 578.607C287.353 577.2 289.261 576.41 291.25 576.41C293.239 576.41 295.147 577.2 296.553 578.607C297.96 580.013 298.75 581.921 298.75 583.91Z" fill="#3F3D56"/>
<path d="M301.613 583.909H156.522V579.818C156.522 576.273 157.221 572.762 158.578 569.486C159.934 566.21 161.923 563.233 164.43 560.726C166.938 558.219 169.914 556.23 173.19 554.873C176.466 553.517 179.977 552.818 183.522 552.818H274.613C281.774 552.818 288.642 555.663 293.705 560.726C298.769 565.79 301.613 572.657 301.613 579.818V583.909H301.613Z" fill="#3F3D56"/>
<path d="M291.247 643.227H146.156C144.167 643.227 142.259 642.436 140.853 641.03C139.446 639.623 138.656 637.716 138.656 635.727C138.656 633.737 139.446 631.83 140.853 630.423C142.259 629.017 144.167 628.227 146.156 628.227H291.247C293.236 628.227 295.144 629.017 296.551 630.423C297.957 631.83 298.747 633.737 298.747 635.727C298.747 637.716 297.957 639.623 296.551 641.03C295.144 642.436 293.236 643.227 291.247 643.227Z" fill="#3F3D56"/>
<path d="M477.712 708.651L461.949 701.112L483.602 635.223L506.868 646.349L477.712 708.651Z" fill="#9E616A"/>
<path d="M584.54 702.683L567.59 706.865L543.031 642.018L568.049 635.845L584.54 702.683Z" fill="#9E616A"/>
<path d="M519.573 422.267C521.822 425.918 525.408 428.546 529.568 429.59C533.727 430.633 538.129 430.009 541.835 427.852C542.58 427.401 543.287 426.889 543.947 426.321L593.784 454.921L591.619 425.562L544.626 402.904C542.069 400.336 538.732 398.688 535.137 398.22C531.543 397.752 527.896 398.49 524.766 400.318C522.964 401.4 521.397 402.831 520.157 404.528C518.916 406.225 518.028 408.153 517.544 410.198C517.06 412.243 516.991 414.365 517.339 416.437C517.688 418.51 518.447 420.492 519.573 422.267Z" fill="#9E616A"/>
<path d="M572.359 444.151L581.169 449.52L620.733 473.646C623.332 475.272 626.225 476.37 629.249 476.877C632.272 477.384 635.366 477.29 638.353 476.6C641.34 475.911 644.161 474.639 646.657 472.859C649.152 471.078 651.272 468.823 652.895 466.223C655.824 461.396 656.861 455.655 655.804 450.109L638.22 362.257C637.57 358.808 636.184 355.54 634.155 352.677C632.126 349.813 629.503 347.422 626.464 345.665C623.426 343.909 620.045 342.829 616.551 342.5C613.057 342.171 609.533 342.6 606.22 343.758C600.651 345.715 596.038 349.72 593.317 354.958C590.597 360.195 589.974 366.273 591.576 371.954L609.963 434.301L581.778 421.16L572.359 444.151Z" fill="#E6E6E6"/>
<path d="M551.53 684.511L524.406 630.112L524.41 629.987L527.088 530.211C527.121 529.324 527.193 528.432 527.301 527.555C527.774 523.555 529.039 519.688 531.022 516.181C533.004 512.674 535.665 509.597 538.849 507.129C541.899 504.743 545.393 502.988 549.128 501.967C552.863 500.946 556.764 500.678 560.603 501.18L638.163 511.217L640.853 500.219L641.354 500.036L715.668 472.801L716.096 473.498C725.829 489.334 732.633 520.968 734.487 530.286L734.513 530.42C734.552 530.616 734.576 530.735 734.584 530.77C738.409 546.671 722.602 573.011 706.854 576.97C673.684 585.425 644.019 578.83 609.669 571.192C597.352 568.453 584.622 565.622 570.6 563.174L571.017 571.426C571.358 577.778 572.678 584.039 574.929 589.989C577.429 597.311 579.404 603.095 575.228 615.154L573.208 620.987C574.256 623.883 574.616 626.983 574.262 630.042C573.907 633.102 572.846 636.037 571.163 638.616L570.757 639.237L588.645 684.5L551.53 684.511Z" fill="#2F2E41"/>
<path d="M506.966 660.453L474.621 657.447L486.08 620.8C488.445 596.871 494.403 573.435 503.754 551.283L519.385 514.241C519.421 513.416 519.49 512.587 519.591 511.774C520.064 507.773 521.329 503.907 523.311 500.4C525.294 496.893 527.955 493.816 531.139 491.349C534.189 488.963 537.683 487.209 541.418 486.188C545.153 485.167 549.053 484.899 552.892 485.4L630.338 495.422L633.711 467.111L708.045 457.164L708.386 457.718C721.379 478.858 729.628 495.408 734.345 509.801C734.582 510.535 734.792 511.284 734.972 512.03C738.824 528.039 729.208 544.269 713.538 548.209C673.603 558.391 625.581 558.108 562.442 547.315L531.885 620.035C528.964 626.981 525.348 633.613 521.092 639.831L506.966 660.453Z" fill="#2F2E41"/>
<path d="M619.788 293.339C640.48 293.339 657.255 276.191 657.255 255.037C657.255 233.883 640.48 216.734 619.788 216.734C599.095 216.734 582.32 233.883 582.32 255.037C582.32 276.191 599.095 293.339 619.788 293.339Z" fill="#9E616A"/>
<path d="M630.606 496.759L625.23 477.5L623.909 468L616.182 468.258L601.017 433.254L595.127 424.024C593.925 422.76 592.837 421.543 591.862 420.376C585.725 413.439 580.804 405.515 577.307 396.938C574.857 390.776 573.418 384.259 573.046 377.638C571.947 358.08 580.191 337.388 598.252 314.383C597.956 313.569 597.758 312.722 597.664 311.861C597.341 309.066 598.134 306.257 599.872 304.045C601.609 301.832 604.15 300.395 606.942 300.047L624.361 298.091C625.716 297.937 627.087 298.055 628.396 298.436C629.705 298.818 630.924 299.456 631.984 300.313C633.091 301.2 634.01 302.299 634.688 303.544C635.365 304.79 635.789 306.158 635.932 307.569C636.166 309.751 635.736 311.953 634.7 313.888C643.579 315.015 651.945 318.68 658.793 324.443C665.641 330.205 670.682 337.821 673.31 346.377C683.733 365.835 692.041 386.354 698.091 407.583C699.284 411.741 698.753 416.025 698.239 420.168C697.765 423.996 697.274 427.953 698.099 431.897C698.938 435.909 700.956 439.934 703.093 444.194C705.541 449.074 708.072 454.12 708.756 459.264L708.804 459.625L630.606 496.759Z" fill="#E4E4E4"/>
<path opacity="0.2" d="M577.77 396.749C581.251 405.276 586.145 413.155 592.245 420.055C593.29 421.302 594.394 422.528 595.548 423.756L601.475 433.055C623.324 416.679 641.025 352.198 641.025 352.198L616.374 347.402L577.77 396.749Z" fill="black"/>
<path d="M562.847 296.917C565.006 300.625 565.632 305.029 564.593 309.192C563.555 313.355 560.933 316.948 557.285 319.207C556.536 319.655 555.752 320.039 554.94 320.357L556.685 377.792L531.812 362.135L533.969 309.994C532.91 306.525 533.031 302.802 534.31 299.408C535.59 296.014 537.958 293.139 541.043 291.231C542.84 290.144 544.837 289.428 546.916 289.126C548.995 288.823 551.113 288.941 553.146 289.471C555.178 290.001 557.084 290.933 558.75 292.212C560.416 293.491 561.809 295.091 562.847 296.917Z" fill="#9E616A"/>
<path d="M558.872 356.113L531.52 360.002L532.696 416.644C532.764 420.684 533.864 424.641 535.892 428.136C537.92 431.632 540.808 434.551 544.282 436.616C548.526 439.113 553.466 440.163 558.358 439.607C563.251 439.052 567.83 436.921 571.406 433.536L635.982 371.424C640.525 367.114 643.244 361.227 643.58 354.973C643.915 348.72 641.842 342.575 637.786 337.804C635.779 335.428 633.315 333.479 630.54 332.074C627.766 330.669 624.737 329.835 621.634 329.623C618.531 329.41 615.417 329.823 612.477 330.837C609.537 331.851 606.83 333.446 604.518 335.526C603.88 336.096 603.273 336.701 602.7 337.337L560.06 386.389L558.872 356.113Z" fill="#E6E6E6"/>
<path d="M330.105 725.568L349.519 725.567L358.755 650.683L330.102 650.684L330.105 725.568Z" fill="#FFB6B6"/>
<path d="M220.061 294.451C241.461 294.451 258.809 277.103 258.809 255.703C258.809 234.302 241.461 216.954 220.061 216.954C198.661 216.954 181.312 234.302 181.312 255.703C181.312 277.103 198.661 294.451 220.061 294.451Z" fill="#FFB6B6"/>
<path d="M355.856 702.5H328.364L321.355 693.105L319.458 684.253L317.825 682.673C315.61 680.547 314.178 677.734 313.761 674.692C313.344 671.65 313.966 668.557 315.527 665.913L295.602 572.951C290.384 572.492 231.533 567.231 190.624 559.99C180.154 558.138 171.98 553.048 166.328 544.864C152.441 524.753 158.39 492.213 158.451 491.887L158.52 491.524L158.887 491.483L254.442 480.758L254.57 480.819C257.741 482.321 332.372 517.75 344.567 529.946C350.075 535.454 362.361 568.174 365.112 602.96C365.605 609.191 363.832 615.538 362.117 621.676C360.512 627.418 358.853 633.356 359.181 638.97C359.687 647.632 360.166 656.718 360.606 665.976C360.676 667.451 361.788 668.978 362.862 670.454C363.985 671.996 365.046 673.453 365.113 674.977C365.766 689.761 356.104 702.185 356.006 702.309L355.856 702.5Z" fill="#2F2E41"/>
<path d="M362.113 358.909C360.031 358.34 357.85 358.234 355.723 358.599C353.597 358.964 351.576 359.791 349.803 361.022C348.03 362.252 346.549 363.857 345.463 365.722C344.378 367.587 343.714 369.667 343.52 371.816L311.324 381.879L312.667 402.935L357.934 388.086C361.566 388.174 365.104 386.926 367.878 384.58C370.651 382.233 372.468 378.951 372.983 375.354C373.498 371.758 372.676 368.097 370.673 365.066C368.669 362.035 365.624 359.845 362.113 358.909V358.909Z" fill="#FFB6B6"/>
<path d="M341.108 393.753L317.046 402.86L316.431 404.053C314.956 406.915 312.404 409.074 309.337 410.054C306.271 411.035 302.94 410.757 300.078 409.282L245.994 429.752C245.994 429.752 221.841 405.582 204.645 384.011L210.505 347.963C211.863 339.599 214.748 331.557 219.016 324.237C254.282 331.97 274.526 381.27 274.526 381.27L338.085 369.142L341.108 393.753Z" fill="#6C63FF"/>
<path d="M214.553 292.38C204.852 295 194.158 291.517 186.587 284.909C179.017 278.302 174.281 268.94 171.553 259.269C169.554 252.186 168.607 244.324 171.76 237.675C174.914 231.026 183.401 226.54 189.949 229.899C185.91 225.193 187.928 217.409 192.646 213.383C197.363 209.357 203.841 208.203 210.011 207.572C218.965 206.656 228.214 206.553 236.735 209.454C245.256 212.355 252.997 218.697 255.664 227.294C258.388 228.562 261.455 228.891 264.385 228.229C267.316 227.568 269.944 225.953 271.859 223.638C272.352 226.297 271.956 229.044 270.731 231.455C269.506 233.867 267.52 235.807 265.081 236.976L278.136 232.743C280.381 237.495 276.447 243.377 271.416 244.899C266.385 246.421 260.955 244.758 256.181 242.559C251.407 240.36 246.78 237.58 241.594 236.723C236.409 235.865 230.317 237.532 227.919 242.208C226.662 244.658 226.597 247.527 225.868 250.181C225.138 252.836 223.29 255.588 220.546 255.805C218.812 255.943 217.115 255.019 215.386 255.208C213.242 255.442 211.601 257.384 211.03 259.463C210.6 261.582 210.595 263.766 211.015 265.887L214.331 291.235" fill="#2F2E41"/>
<path d="M166.55 549.495C166.543 549.495 166.535 549.494 166.528 549.492L166.222 549.44L166.133 549.142C165.019 545.395 163.601 541.56 162.23 537.85C160.211 532.713 158.507 527.458 157.125 522.114C156.038 517.005 155.285 511.83 154.869 506.623C154.487 502.843 154.091 498.934 153.419 495.085C153.12 493.377 154.252 491.759 155.346 490.194C156.361 488.743 157.319 487.373 157.118 486.076C156.912 484.751 155.442 483.294 154.02 481.886C152.462 480.343 150.85 478.747 150.622 477.067C147.516 454.147 146.07 431.032 146.296 407.903C146.617 375.903 148.064 354.091 150.595 343.072C157.4 313.445 188.843 308.039 193.765 307.371C194.289 305.975 195.095 304.702 196.133 303.63C197.17 302.559 198.417 301.713 199.796 301.144C201.175 300.576 202.656 300.297 204.147 300.325C205.638 300.354 207.107 300.689 208.463 301.31L230.804 311.537C235.336 313.618 239.391 316.61 242.718 320.325C246.045 324.041 248.572 328.4 250.142 333.134L253.461 343.251L255.123 411.171L245.911 459L263.911 486C167.977 538.669 166.859 549.495 166.55 549.495Z" fill="#6C63FF"/>
<path d="M319.656 718.022L325.968 718.022L350.612 708L363.821 718.021H363.822C371.287 718.021 378.445 720.986 383.723 726.264C389.001 731.542 391.967 738.701 391.967 746.165V747.08L319.658 747.082L319.656 718.022Z" fill="#2F2E41"/>
<path d="M370.177 407.377C368.316 406.284 366.238 405.613 364.09 405.411C361.941 405.208 359.775 405.479 357.742 406.205C355.71 406.93 353.861 408.093 352.327 409.61C350.792 411.127 349.609 412.962 348.86 414.986L315.155 416.3L310.613 432L358.531 434.453C362.014 435.486 365.755 435.204 369.045 433.662C372.335 432.121 374.945 429.426 376.38 426.088C377.816 422.751 377.977 419.002 376.834 415.554C375.691 412.105 373.322 409.196 370.177 407.377Z" fill="#FFB6B6"/>
<path d="M342.489 436.146L307.867 435.715L303.484 435.655L233.043 434.768C233.043 434.768 213.914 416.519 197.258 397.73L199.592 380.844C201.87 364.272 210.09 349.091 222.725 338.128C246.581 354.068 260.415 385.621 260.415 385.621L283.612 396C299.937 396.731 315.844 401.389 329.984 409.581L337.612 414L342.489 436.146Z" fill="#6C63FF"/>
<path d="M596.908 734.624L585.388 737.467L580.648 727.098L578.066 739.274L547.512 746.815C546.047 747.176 544.506 747.06 543.112 746.483C541.718 745.907 540.545 744.899 539.764 743.609C538.983 742.318 538.635 740.812 538.771 739.309C538.907 737.807 539.519 736.387 540.519 735.258L560.76 712.385L558.046 701.39L584.088 696.588L596.908 734.624Z" fill="#2F2E41"/>
<path d="M474.87 738.179L463.884 733.695L466.157 722.523L456.901 730.845L427.764 718.952C426.368 718.382 425.19 717.38 424.403 716.093C423.616 714.807 423.26 713.302 423.389 711.799C423.518 710.296 424.123 708.873 425.118 707.739C426.112 706.604 427.443 705.818 428.916 705.493L458.743 698.921L463.023 688.436L486.9 699.886L474.87 738.179Z" fill="#2F2E41"/>
<path d="M436.613 432.5H427.613C417.936 432.489 408.659 428.64 401.816 421.797C394.973 414.955 391.124 405.677 391.113 396V395.5H473.113V396C473.102 405.677 469.253 414.955 462.411 421.797C455.568 428.64 446.29 432.489 436.613 432.5Z" fill="#E4E4E4"/>
<path d="M427.613 382.5C427.613 384.985 423.113 387 423.113 387C423.113 387 418.613 384.985 418.613 382.5C418.613 380.015 423.113 378 423.113 378C423.113 378 427.613 380.015 427.613 382.5Z" fill="#3F3D56"/>
<path d="M454.613 382.5C454.613 384.985 450.113 387 450.113 387C450.113 387 445.613 384.985 445.613 382.5C445.613 380.015 450.113 378 450.113 378C450.113 378 454.613 380.015 454.613 382.5Z" fill="#3F3D56"/>
<path d="M436.613 391.5C436.613 393.985 432.113 396 432.113 396C432.113 396 427.613 393.985 427.613 391.5C427.613 389.015 432.113 387 432.113 387C432.113 387 436.613 389.015 436.613 391.5Z" fill="#3F3D56"/>
<path d="M405.113 373C407.599 373 409.613 370.985 409.613 368.5C409.613 366.015 407.599 364 405.113 364C402.628 364 400.613 366.015 400.613 368.5C400.613 370.985 402.628 373 405.113 373Z" fill="#3F3D56"/>
<path d="M339.668 358.829L410.64 368.631C411.282 368.72 411.9 368.937 412.455 369.271C413.011 369.605 413.493 370.048 413.872 370.574C414.252 371.099 414.521 371.696 414.663 372.328C414.806 372.961 414.819 373.615 414.701 374.253C414.583 374.89 414.338 375.497 413.979 376.037C413.62 376.576 413.156 377.038 412.613 377.393C412.071 377.748 411.463 377.99 410.825 378.104C410.187 378.217 409.532 378.2 408.901 378.054L339.107 361.866C338.719 361.776 338.381 361.541 338.163 361.208C337.945 360.875 337.864 360.471 337.936 360.08C338.008 359.688 338.228 359.34 338.551 359.107C338.874 358.874 339.274 358.775 339.668 358.829Z" fill="#E4E4E4"/>
<path d="M425.91 135.213V0H416.91V135.213C404.613 136.335 393.18 142.013 384.854 151.132C376.528 160.25 371.912 172.152 371.91 184.5V198H403.41C403.41 202.774 405.307 207.352 408.682 210.728C412.058 214.104 416.636 216 421.41 216C426.184 216 430.762 214.104 434.138 210.728C437.514 207.352 439.41 202.774 439.41 198H470.91V184.5C470.909 172.152 466.292 160.25 457.966 151.132C449.641 142.013 438.207 136.335 425.91 135.213Z" fill="#F0F0F0"/>
<path d="M541.785 101.41V0H535.035V101.41C525.812 102.251 517.237 106.509 510.993 113.349C504.749 120.188 501.286 129.114 501.285 138.375V148.5H524.91C524.91 152.08 526.332 155.514 528.864 158.046C531.396 160.578 534.83 162 538.41 162C541.991 162 545.424 160.578 547.956 158.046C550.488 155.514 551.91 152.08 551.91 148.5H575.535V138.375C575.534 129.114 572.072 120.188 565.827 113.349C559.583 106.509 551.008 102.251 541.785 101.41Z" fill="#F0F0F0"/>
<path d="M313.785 101.41V0H307.035V101.41C297.812 102.251 289.237 106.509 282.993 113.349C276.749 120.188 273.286 129.114 273.285 138.375V148.5H296.91C296.91 152.08 298.332 155.514 300.864 158.046C303.396 160.578 306.83 162 310.41 162C313.991 162 317.424 160.578 319.956 158.046C322.488 155.514 323.91 152.08 323.91 148.5H347.535V138.375C347.534 129.114 344.072 120.188 337.827 113.349C331.583 106.509 323.008 102.251 313.785 101.41Z" fill="#F0F0F0"/>
<path d="M720.049 238.425C713.681 230.998 710.653 221.145 705.562 212.711C700.47 204.277 691.611 196.729 682.251 198.692C675.799 200.045 670.812 205.738 668.288 212.086C665.764 218.433 665.291 225.433 664.848 232.291C665.005 218.198 655.72 204.536 642.93 200.04C630.141 195.543 614.835 200.559 606.798 211.881C603.291 208.63 598.713 206.779 593.932 206.679C589.151 206.578 584.5 208.236 580.86 211.336C573.671 217.761 572.08 229.989 577.367 238.184C582.654 246.379 594.103 249.432 602.504 244.887L605.474 247.619C603.802 253.467 607.045 260.374 612.495 262.575C616.914 264.361 623.154 264.063 624.807 268.701C625.963 271.942 623.803 275.401 621.505 277.891C619.208 280.381 616.48 282.953 616.204 286.399C615.787 291.598 621.16 295.241 626.044 296.338C637.821 298.983 650.889 293.529 657.677 283.135C657.808 282.935 657.951 282.734 658.104 282.533C661.913 277.663 664.688 272.067 666.261 266.088C667.834 260.109 668.171 253.872 667.252 247.758C666.87 245.356 667.255 243.569 668.911 243C676.07 240.541 696.127 245.702 702.196 250.366C708.267 255.031 713.128 261.204 718.974 266.169C724.822 271.134 732.272 274.964 739.696 273.612C745.642 272.529 750.7 268.213 754.102 263.006C757.504 257.799 759.462 251.73 761.216 245.699C748.068 253.294 730.074 250.115 720.049 238.425Z" fill="#2F2E41"/>
</g>
<defs>
<clipPath id="clip0_156_1687">
<rect width="893.68" height="749.53" fill="white"/>
</clipPath>
</defs>
</svg>
