<svg width="818" height="773" viewBox="0 0 818 773" fill="none" xmlns="http://www.w3.org/2000/svg">
<path d="M817.609 768.987H265.609V771.367H817.609V768.987Z" fill="white"/>
<path d="M714.984 364.187C716.047 365.435 716.836 366.893 717.299 368.465C717.762 370.037 717.89 371.689 717.674 373.314C717.459 374.938 716.904 376.5 716.046 377.896C715.188 379.293 714.047 380.494 712.695 381.422L655.568 420.633L630.412 437.398C628.983 438.351 627.251 438.737 625.553 438.483C623.854 438.229 622.311 437.352 621.223 436.024C620.589 435.249 620.131 434.346 619.881 433.377C619.63 432.408 619.593 431.396 619.771 430.411C619.95 429.426 620.341 428.492 620.916 427.673C621.491 426.854 622.237 426.169 623.103 425.667L647.468 411.523L689.991 371.037L662.655 341.685L682.903 326.503L714.984 364.187Z" fill="#A0616A"/>
<path d="M580.645 733.387H566.671L558.371 618.001L593.807 616.989L580.645 733.387Z" fill="#A0616A"/>
<path d="M581.658 770.836C577.932 772.536 574.811 758.762 571.668 761.85C562.877 770.487 549.414 772.368 537.68 768.597L541.787 768.551C541.079 768.324 540.424 767.955 539.863 767.467C539.301 766.979 538.845 766.382 538.521 765.713C538.197 765.044 538.013 764.315 537.979 763.573C537.944 762.83 538.061 762.088 538.323 761.392C538.635 760.558 539.145 759.814 539.81 759.221C540.474 758.629 541.272 758.207 542.135 757.991L551.485 755.654L566.166 729.844L581.152 728.832C584.493 733.09 586.825 738.05 587.972 743.339C589.119 748.628 589.051 754.108 587.774 759.367C586.414 764.917 584.315 769.624 581.658 770.836Z" fill="#2F2E41"/>
<path d="M673.692 733.387H659.718L651.418 618.001L687.866 610.917L673.692 733.387Z" fill="#A0616A"/>
<path d="M674.701 770.836C670.975 772.536 667.854 758.762 664.711 761.85C655.92 770.487 642.457 772.367 630.723 768.596L634.83 768.551C634.121 768.323 633.467 767.954 632.906 767.466C632.344 766.978 631.888 766.382 631.564 765.712C631.24 765.043 631.056 764.315 631.022 763.572C630.987 762.829 631.105 762.087 631.366 761.391C631.678 760.558 632.189 759.813 632.853 759.221C633.517 758.628 634.315 758.206 635.179 757.99L644.528 755.653L659.209 729.844L675.208 727.819L675.612 728.48C678.705 733.463 680.699 739.049 681.461 744.864C682.223 750.679 681.736 756.59 680.032 762.202C678.702 766.463 676.891 769.837 674.701 770.836Z" fill="#2F2E41"/>
<path d="M689.537 329.113C676.686 330.901 667.789 337.937 664.166 351.972L640.544 308.371C639.144 305.6 638.789 302.417 639.545 299.406C640.3 296.395 642.116 293.757 644.659 291.975C647.359 290.084 650.679 289.297 653.94 289.774C657.202 290.251 660.157 291.957 662.201 294.542L689.537 329.113Z" fill="#6C63FF"/>
<path d="M714.289 605.856C656.856 631.26 598.079 634.386 538.125 618.002C560.018 533.114 585.869 456.357 585.71 393.305L644.431 388.244L653.472 402.574C674.924 436.572 689.731 474.329 697.109 513.843L714.289 605.856Z" fill="#2F2E41"/>
<path d="M618.108 262.738C634.882 262.738 648.481 249.143 648.481 232.373C648.481 215.603 634.882 202.009 618.108 202.009C601.333 202.009 587.734 215.603 587.734 232.373C587.734 249.143 601.333 262.738 618.108 262.738Z" fill="#A0616A"/>
<path d="M651.515 286.017L614.055 288.041L607.98 254.64L638.354 249.58L651.515 286.017Z" fill="#A0616A"/>
<path d="M647.466 393.305L606.427 394.461L585.707 397.354C575.537 363.768 566.975 330.259 587.732 302.212L612.031 277.92L648.479 276.908L648.961 277.184C654.75 280.499 659.236 285.687 661.68 291.892C664.124 298.097 664.381 304.95 662.409 311.321C653.364 340.704 647.554 368.452 647.466 393.305Z" fill="#6C63FF"/>
<path d="M584.696 487.434L582.15 522.215C582.014 524.078 581.209 525.829 579.883 527.146C578.558 528.463 576.801 529.256 574.937 529.38C573.863 529.452 572.785 529.299 571.773 528.931C570.762 528.563 569.838 527.989 569.06 527.244C568.283 526.5 567.669 525.601 567.258 524.606C566.847 523.611 566.648 522.542 566.674 521.466L567.485 487.434L592.796 391.28L593.808 332.576L622.156 331.563L620.131 399.377L584.696 487.434Z" fill="#A0616A"/>
<path d="M625.192 336.624C613.173 331.738 601.948 333.374 591.781 343.709L593.174 294.144C593.35 291.044 594.636 288.111 596.799 285.883C598.962 283.655 601.855 282.28 604.949 282.011C608.232 281.726 611.501 282.707 614.085 284.752C616.669 286.798 618.372 289.754 618.847 293.015L625.192 336.624Z" fill="#6C63FF"/>
<path d="M682.398 367.495H589.254C610.983 309.973 617.99 256.46 589.254 210.612C589.747 196.841 607.415 184.903 621.135 186.222C637.339 187.78 659.114 199.684 662.149 215.673L682.398 367.495Z" fill="#2F2E41"/>
<path d="M385.549 183.694H381.301V67.3415C381.301 58.4981 379.558 49.7412 376.173 41.571C372.788 33.4007 367.826 25.977 361.571 19.7238C355.316 13.4706 347.89 8.51022 339.718 5.12601C331.545 1.74179 322.786 -2.65013e-05 313.94 3.02421e-10H67.361C58.5151 -1.95272e-05 49.7557 1.74181 41.5831 5.12603C33.4104 8.51025 25.9846 13.4706 19.7296 19.7238C13.4745 25.9771 8.51274 33.4008 5.12753 41.571C1.74233 49.7413 -9.76654e-06 58.4981 0 67.3415V705.658C-6.97609e-06 714.502 1.74233 723.259 5.12753 731.429C8.51274 739.599 13.4745 747.023 19.7296 753.276C25.9846 759.529 33.4104 764.49 41.5831 767.874C49.7557 771.258 58.5151 773 67.361 773H313.94C322.786 773 331.545 771.258 339.718 767.874C347.89 764.49 355.316 759.529 361.571 753.276C367.826 747.023 372.788 739.599 376.173 731.429C379.558 723.259 381.301 714.502 381.301 705.658V266.515H385.549V183.694Z" fill="#3F3D56"/>
<path d="M316.657 17.5195H284.47C285.95 21.1474 286.515 25.0835 286.115 28.9811C285.715 32.8788 284.363 36.6182 282.177 39.8702C279.991 43.1221 277.038 45.7867 273.579 47.6291C270.12 49.4716 266.261 50.4355 262.342 50.4357H121.08C117.161 50.4355 113.302 49.4716 109.843 47.6291C106.385 45.7867 103.432 43.1221 101.246 39.8702C99.06 36.6182 97.7074 32.8788 97.3075 28.9812C96.9076 25.0835 97.4726 21.1474 98.9528 17.5195H68.8904C62.2843 17.5195 55.7429 18.8203 49.6397 21.3476C43.5365 23.8749 37.991 27.5792 33.3198 32.249C28.6486 36.9189 24.9432 42.4628 22.4151 48.5642C19.8871 54.6657 18.5859 61.2052 18.5859 67.8093V705.19C18.5859 711.794 19.8871 718.333 22.4151 724.435C24.9432 730.536 28.6486 736.08 33.3198 740.75C37.991 745.42 43.5365 749.124 49.6397 751.652C55.7429 754.179 62.2843 755.48 68.8904 755.48H316.657C323.263 755.48 329.804 754.179 335.907 751.652C342.01 749.124 347.556 745.42 352.227 740.75C356.898 736.08 360.604 730.536 363.132 724.435C365.66 718.333 366.961 711.794 366.961 705.19V67.8093C366.961 54.4716 361.661 41.6802 352.227 32.249C342.793 22.8179 329.998 17.5195 316.657 17.5195Z" fill="white"/>
<path d="M323.455 117.083H62.0938V341.194H323.455V117.083Z" fill="#E6E6E6"/>
<path d="M139.651 387.928C150.213 387.928 158.775 379.369 158.775 368.81C158.775 358.251 150.213 349.691 139.651 349.691C129.089 349.691 120.527 358.251 120.527 368.81C120.527 379.369 129.089 387.928 139.651 387.928Z" fill="#6C63FF"/>
<path d="M149.214 367.217H141.246V359.251H138.058V367.217H130.09V370.403H138.058V378.369H141.246V370.403H149.214V367.217Z" fill="white"/>
<path d="M240.585 387.928C251.147 387.928 259.709 379.369 259.709 368.81C259.709 358.251 251.147 349.691 240.585 349.691C230.023 349.691 221.461 358.251 221.461 368.81C221.461 379.369 230.023 387.928 240.585 387.928Z" fill="#6C63FF"/>
<path d="M250.148 370.403V367.217H231.024V370.403H250.148Z" fill="white"/>
<path d="M202.521 145.033H181.867C181.141 145.033 180.444 145.322 179.931 145.835C179.417 146.348 179.129 147.045 179.129 147.771V156.834C179.129 157.56 179.417 158.256 179.931 158.77C180.444 159.283 181.141 159.571 181.867 159.571H185.29V173.151H199.099V159.571H202.521C203.248 159.571 203.944 159.283 204.458 158.77C204.971 158.256 205.26 157.56 205.26 156.834V147.771C205.26 147.045 204.971 146.348 204.458 145.835C203.944 145.322 203.248 145.033 202.521 145.033Z" fill="#6C63FF"/>
<path d="M223.21 227.978C210.561 209.474 204.094 187.443 204.737 165.04C204.748 164.523 204.581 164.018 204.262 163.611C203.943 163.204 203.493 162.919 202.989 162.806V158.89H181.175V162.751H180.875C180.581 162.752 180.29 162.81 180.018 162.923C179.747 163.036 179.5 163.201 179.293 163.409C179.085 163.617 178.921 163.864 178.809 164.135C178.697 164.407 178.639 164.698 178.639 164.992C178.639 165.046 178.641 165.101 178.646 165.155C180.364 189.103 174.561 210.58 161.237 229.584C160.47 230.677 160.078 231.988 160.12 233.322L162.505 307.081C162.563 308.726 163.253 310.286 164.433 311.434C165.613 312.582 167.191 313.231 168.838 313.244H218.177C219.842 313.23 221.436 312.567 222.62 311.396C223.803 310.224 224.483 308.637 224.513 306.972L225.432 235.358C225.459 232.729 224.684 230.155 223.21 227.978Z" fill="#3F3D56"/>
<path opacity="0.2" d="M198.218 147.986C198.218 149.553 197.596 151.055 196.488 152.163C195.38 153.27 193.877 153.892 192.31 153.892C190.743 153.892 189.241 153.27 188.133 152.163C187.025 151.055 186.402 149.553 186.402 147.986" fill="black"/>
<path d="M215.398 252.479H209.423C208.853 248.779 206.977 245.405 204.134 242.968C201.291 240.53 197.67 239.19 193.925 239.19C190.18 239.19 186.559 240.53 183.716 242.968C180.874 245.405 178.997 248.779 178.427 252.479H172.452C171.816 252.479 171.188 252.617 170.611 252.882C170.033 253.148 169.52 253.535 169.106 254.017C168.692 254.499 168.387 255.065 168.213 255.677C168.038 256.288 167.998 256.929 168.094 257.557L174.584 299.728H211.849L219.731 257.699C219.851 257.063 219.828 256.408 219.666 255.781C219.503 255.154 219.204 254.571 218.791 254.072C218.377 253.574 217.858 253.173 217.272 252.897C216.685 252.622 216.046 252.479 215.398 252.479V252.479Z" fill="#6C63FF"/>
<path d="M323.455 432.538H62.0938V656.649H323.455V432.538Z" fill="#E6E6E6"/>
<path d="M139.651 703.383C150.213 703.383 158.775 694.824 158.775 684.265C158.775 673.706 150.213 665.146 139.651 665.146C129.089 665.146 120.527 673.706 120.527 684.265C120.527 694.824 129.089 703.383 139.651 703.383Z" fill="#6C63FF"/>
<path d="M149.214 682.671H141.246V674.705H138.058V682.671H130.09V685.858H138.058V693.824H141.246V685.858H149.214V682.671Z" fill="white"/>
<path d="M240.585 703.383C251.147 703.383 259.709 694.824 259.709 684.265C259.709 673.706 251.147 665.146 240.585 665.146C230.023 665.146 221.461 673.706 221.461 684.265C221.461 694.824 230.023 703.383 240.585 703.383Z" fill="#6C63FF"/>
<path d="M250.148 685.857V682.671H231.024V685.857H250.148Z" fill="white"/>
<path d="M244.227 591.75L244.371 591.75C249.292 591.791 254.111 590.349 258.2 587.611C262.289 584.873 265.457 580.967 267.291 576.402C273.073 561.788 274.426 545.797 271.184 530.419C267.941 515.042 260.246 500.958 249.055 489.92C237.865 478.883 223.674 471.381 208.25 468.347C192.825 465.313 176.849 466.882 162.311 472.858C147.772 478.835 135.313 488.955 126.484 501.958C117.656 514.961 112.849 530.273 112.662 545.987C112.475 561.702 116.915 577.124 125.431 590.334C133.946 603.544 146.16 613.958 160.552 620.279C165.026 622.259 169.993 622.841 174.803 621.949C179.613 621.058 184.041 618.734 187.507 615.282C194.94 607.812 203.779 601.886 213.514 597.848C223.249 593.809 233.687 591.736 244.227 591.75Z" fill="white"/>
<path d="M203.067 567.501C217.681 567.501 229.528 555.657 229.528 541.047C229.528 526.437 217.681 514.594 203.067 514.594C188.453 514.594 176.605 526.437 176.605 541.047C176.605 555.657 188.453 567.501 203.067 567.501Z" fill="#F9A825"/>
</svg>
