<svg width="364" height="35" viewBox="0 0 364 35" fill="none" xmlns="http://www.w3.org/2000/svg">
<path d="M17.6662 13.54C14.0662 14.296 10.7542 14.512 4.74217 14.548V6.952H14.8942V3.172H0.026172V18.364H2.83417C10.2502 18.364 14.0662 18.184 18.1342 17.32L17.6662 13.54ZM14.1022 30.316C9.92617 30.316 7.58617 29.38 7.58617 27.364C7.58617 25.384 9.92617 24.448 14.1022 24.448C18.3142 24.448 20.6542 25.384 20.6542 27.364C20.6542 29.38 18.3142 30.316 14.1022 30.316ZM14.1022 20.668C7.29817 20.668 2.90617 23.188 2.90617 27.364C2.90617 31.612 7.29817 34.132 14.1022 34.132C20.9782 34.132 25.3342 31.612 25.3342 27.364C25.3342 23.188 20.9782 20.668 14.1022 20.668ZM25.0462 8.788V0.903999H20.2582V20.092H25.0462V12.64H29.3662V8.788H25.0462ZM59.5314 0.975998H54.7434V25.132H59.5314V0.975998ZM52.2954 16.348C46.8954 14.62 44.5914 10.372 44.5914 5.98V2.776H39.7674V5.98C39.7674 10.408 37.3914 15.052 31.8834 16.924L34.2954 20.704C38.1474 19.372 40.7394 16.672 42.2514 13.324C43.6914 16.42 46.2114 18.868 49.8834 20.128L52.2954 16.348ZM42.2154 29.74V22.828H37.4634V33.52H60.3594V29.74H42.2154ZM87.8245 0.903999V34.168H92.5765V0.903999H87.8245ZM74.7565 3.244C69.7525 3.244 66.0445 7.78 66.0445 15.052C66.0445 22.36 69.7525 26.932 74.7565 26.932C79.7605 26.932 83.4685 22.36 83.4685 15.052C83.4685 7.78 79.7605 3.244 74.7565 3.244ZM74.7565 7.528C77.2045 7.528 78.8965 10.156 78.8965 15.052C78.8965 19.984 77.2045 22.612 74.7565 22.612C72.3085 22.612 70.6165 19.984 70.6165 15.052C70.6165 10.156 72.3085 7.528 74.7565 7.528ZM123.302 20.2V23.44H129.53V26.068H134.282V0.939999H129.53V20.2H123.302ZM116.93 5.512C119.126 5.512 120.674 6.376 120.674 7.996C120.674 9.616 119.126 10.444 116.93 10.444C114.698 10.444 113.15 9.616 113.15 7.996C113.15 6.376 114.698 5.512 116.93 5.512ZM116.93 13.9C121.754 13.9 125.174 11.524 125.174 7.996C125.174 4.468 121.754 2.056 116.93 2.056C112.07 2.056 108.686 4.468 108.686 7.996C108.686 11.524 112.07 13.9 116.93 13.9ZM115.166 29.74V25.204H119.738V18.94C122.402 18.724 125.066 18.436 127.658 18.004L127.334 14.62C120.35 15.52 112.286 15.592 106.238 15.628L106.85 19.408C109.334 19.408 112.106 19.372 115.022 19.228V23.656H110.414V33.52H135.002V29.74H115.166ZM149.075 23.44C146.843 23.44 145.187 21.928 145.187 19.408C145.187 16.888 146.843 15.34 149.075 15.34C151.307 15.34 152.927 16.888 152.927 19.372C152.927 21.928 151.307 23.44 149.075 23.44ZM149.075 11.488C144.251 11.488 140.651 14.764 140.651 19.372C140.651 24.052 144.251 27.328 149.075 27.328C153.863 27.328 157.427 24.052 157.427 19.372C157.427 14.764 153.863 11.488 149.075 11.488ZM151.415 1.516H146.663V5.836H139.319V9.616H158.615V5.836H151.415V1.516ZM170.279 13.9H165.527V0.939999H160.775V34.096H165.527V17.824H170.279V13.9ZM199.328 9.904H181.076V2.128H176.324V13.684H199.328V9.904ZM180.788 23.512H176V33.376H199.508V29.596H180.788V23.512ZM172.616 17.068V20.884H202.64V17.068H172.616ZM223.538 22.468H219.29V15.052H223.538V22.468ZM223.538 11.344H219.29V3.856H214.826V26.248H227.894V3.856H223.538V11.344ZM237.83 0.903999V13.576H235.058V1.444H230.63V32.62H235.058V17.392H237.83V34.06H242.33V0.903999H237.83ZM265.799 11.884C262.019 12.676 258.563 12.928 252.875 12.964V6.376H262.991V2.668H248.159V16.708H250.931C257.987 16.708 261.983 16.528 266.267 15.592L265.799 11.884ZM255.971 27.904H273.107V18.76H251.219V22.504H268.427V24.448H251.255V33.7H274.079V29.992H255.971V27.904ZM273.107 7.204V0.903999H268.355V17.392H273.107V11.056H277.499V7.204H273.107ZM284.408 31.504C286.316 31.504 287.72 29.992 287.72 28.048C287.72 26.068 286.316 24.592 284.408 24.592C282.536 24.592 281.132 26.068 281.132 28.048C281.132 29.992 282.536 31.504 284.408 31.504ZM312.443 3.496H307.655V8.284C307.655 14.62 305.135 21.064 299.519 23.62L302.471 27.4C306.143 25.6 308.627 22.144 310.067 17.86C311.435 22 313.847 25.312 317.483 27.112L320.327 23.332C314.855 20.812 312.443 14.692 312.443 8.284V3.496ZM322.955 0.939999V7.528H317.015V11.452H322.955V15.628H317.015V19.516H322.955V34.168H327.815V0.939999H322.955ZM359.889 11.092H341.529V9.472H358.845V6.412H341.529V4.828H359.637V1.66H336.813V14.296H359.889V11.092ZM341.277 28.84H359.421V20.812H336.525V24.124H354.741V25.708H336.561V33.844H360.285V30.532H341.277V28.84ZM333.177 15.808V19.3H363.021V15.808H333.177Z" fill="#0F256D"/>
</svg>
